<?xml version="1.0" encoding="UTF-8" standalone="no"?>
<!-- Created with Inkscape (http://www.inkscape.org/) -->

<svg
   width="1782.8245mm"
   height="285.75mm"
   viewBox="0 0 1782.8245 285.75"
   version="1.1"
   id="svg1"
   xml:space="preserve"
   xmlns:xlink="http://www.w3.org/1999/xlink"
   xmlns="http://www.w3.org/2000/svg"
   xmlns:svg="http://www.w3.org/2000/svg"><defs
     id="defs1"><linearGradient
       id="linearGradient718"><stop
         style="stop-color:#def700;stop-opacity:1;"
         offset="0"
         id="stop716" /><stop
         style="stop-color:#5ed914;stop-opacity:1;"
         offset="0.60000002"
         id="stop717" /></linearGradient><linearGradient
       xlink:href="#linearGradient718"
       id="linearGradient1194"
       gradientUnits="userSpaceOnUse"
       gradientTransform="matrix(2.3577858,0,0,2.3577858,18303.126,12618.574)"
       x1="1078.4706"
       y1="39.590103"
       x2="1092.5612"
       y2="17.437691" /><linearGradient
       xlink:href="#linearGradient718"
       id="linearGradient1195"
       gradientUnits="userSpaceOnUse"
       gradientTransform="matrix(0,2.3577858,-2.3577858,0,20960.675,10175.543)"
       x1="1078.4706"
       y1="39.590103"
       x2="1092.5612"
       y2="17.437691" /><linearGradient
       xlink:href="#linearGradient718"
       id="linearGradient1196"
       gradientUnits="userSpaceOnUse"
       gradientTransform="matrix(0,-2.3577858,2.3577858,0,20746.154,15276.121)"
       x1="1078.4706"
       y1="39.590103"
       x2="1092.5612"
       y2="17.437691" /><linearGradient
       xlink:href="#linearGradient718"
       id="linearGradient1197"
       gradientUnits="userSpaceOnUse"
       gradientTransform="matrix(-2.3577858,0,0,-2.3577858,23403.702,12833.094)"
       x1="1078.4706"
       y1="39.590103"
       x2="1092.5612"
       y2="17.437691" /></defs><g
     id="layer1"
     transform="translate(-19090.518,-12470.359)"><g
       id="g809"
       transform="matrix(2.1599946,0,0,2.1599946,-25809.871,-14874.5)"><path
         style="font-weight:500;font-size:101.367px;line-height:1.3;font-family:'Space Grotesk';-inkscape-font-specification:'Space Grotesk Medium';text-align:center;letter-spacing:-1.85451px;text-anchor:middle;stroke-width:1.30018;stroke-linecap:round;stroke-linejoin:round;paint-order:stroke markers fill"
         d="m 20939.832,12763.305 v -14.192 l 37.303,-45.513 v -1.42 h -36.188 v -9.832 h 47.44 v 14.191 l -37.303,45.514 v 1.419 h 37.709 v 9.833 z m 76.269,0.912 q -5.676,0 -10.136,-2.534 -4.46,-2.534 -6.995,-7.197 -2.534,-4.663 -2.534,-11.151 v -30.004 h 10.441 v 29.295 q 0,6.487 3.244,9.63 3.243,3.041 9.021,3.041 6.387,0 10.238,-4.258 3.954,-4.358 3.954,-12.468 v -25.24 h 10.441 v 49.974 h -10.238 v -7.501 h -1.622 q -1.419,3.041 -5.069,5.777 -3.649,2.636 -10.745,2.636 z m 36.988,19.361 v -70.247 h 10.238 v 7.197 h 1.622 q 1.926,-3.345 5.778,-5.981 3.953,-2.635 11.252,-2.635 6.285,0 11.454,3.041 5.271,3.041 8.414,8.819 3.243,5.676 3.243,13.785 v 1.521 q 0,8.109 -3.142,13.887 -3.142,5.677 -8.413,8.718 -5.271,3.041 -11.556,3.041 -4.866,0 -8.211,-1.217 -3.345,-1.216 -5.372,-3.041 -2.028,-1.926 -3.244,-3.953 h -1.622 v 27.065 z m 25.849,-27.977 q 6.893,0 11.252,-4.359 4.358,-4.359 4.358,-12.468 v -0.912 q 0,-8.008 -4.46,-12.367 -4.359,-4.359 -11.15,-4.359 -6.69,0 -11.151,4.359 -4.358,4.359 -4.358,12.367 v 0.912 q 0,8.109 4.358,12.468 4.461,4.359 11.151,4.359 z m 57.023,9.123 q -7.603,0 -13.279,-3.143 -5.677,-3.243 -8.92,-9.021 -3.143,-5.879 -3.143,-13.583 v -1.217 q 0,-7.805 3.143,-13.583 3.142,-5.879 8.717,-9.022 5.677,-3.243 13.076,-3.243 7.198,0 12.57,3.243 5.474,3.143 8.515,8.819 3.041,5.677 3.041,13.279 v 3.954 h -38.418 q 0.202,6.589 4.358,10.542 4.258,3.852 10.543,3.852 5.879,0 8.819,-2.636 3.041,-2.635 4.662,-6.082 l 8.617,4.46 q -1.419,2.839 -4.156,5.981 -2.636,3.142 -6.995,5.271 -4.358,2.129 -11.15,2.129 z m -14.597,-31.525 h 27.673 q -0.405,-5.677 -4.054,-8.819 -3.65,-3.244 -9.529,-3.244 -5.879,0 -9.63,3.244 -3.649,3.142 -4.46,8.819 z m 45.215,30.106 v -49.974 h 10.238 v 5.879 h 1.622 q 1.217,-3.142 3.852,-4.561 2.737,-1.521 6.69,-1.521 h 5.981 v 9.427 h -6.386 q -5.068,0 -8.312,2.838 -3.244,2.737 -3.244,8.515 v 29.397 z m 37.071,0 v -70.957 h 29.802 q 6.588,0 11.555,2.331 5.069,2.23 7.806,6.488 2.838,4.257 2.838,10.136 v 1.115 q 0,6.691 -3.244,10.745 -3.142,3.954 -7.704,5.576 v 1.621 q 3.852,0.203 6.184,2.636 2.331,2.331 2.331,6.792 v 23.517 h -11.049 v -21.997 q 0,-2.737 -1.419,-4.359 -1.419,-1.622 -4.562,-1.622 h -21.591 v 27.978 z m 10.947,-37.912 h 17.638 q 5.879,0 9.123,-2.939 3.244,-3.041 3.244,-8.211 v -0.811 q 0,-5.17 -3.244,-8.109 -3.142,-3.041 -9.123,-3.041 h -17.638 z m 72.232,39.331 q -7.602,0 -13.279,-3.143 -5.676,-3.243 -8.92,-9.021 -3.142,-5.879 -3.142,-13.583 v -1.217 q 0,-7.805 3.142,-13.583 3.142,-5.879 8.718,-9.022 5.676,-3.243 13.076,-3.243 7.197,0 12.569,3.243 5.474,3.143 8.515,8.819 3.041,5.677 3.041,13.279 v 3.954 h -38.418 q 0.203,6.589 4.359,10.542 4.257,3.852 10.542,3.852 5.879,0 8.819,-2.636 3.041,-2.635 4.663,-6.082 l 8.616,4.46 q -1.419,2.839 -4.156,5.981 -2.635,3.142 -6.994,5.271 -4.359,2.129 -11.151,2.129 z m -14.596,-31.525 h 27.673 q -0.406,-5.677 -4.055,-8.819 -3.649,-3.244 -9.528,-3.244 -5.88,0 -9.63,3.244 -3.649,3.142 -4.46,8.819 z m 67.265,31.525 q -9.529,0 -15.814,-4.258 -6.284,-4.257 -7.703,-12.873 l 9.731,-2.332 q 0.811,4.156 2.737,6.589 1.926,2.433 4.764,3.447 2.94,1.013 6.285,1.013 4.967,0 7.602,-1.926 2.737,-1.926 2.737,-4.967 0,-3.041 -2.534,-4.46 -2.534,-1.419 -7.501,-2.331 l -3.447,-0.608 q -5.068,-0.913 -9.224,-2.636 -4.156,-1.723 -6.589,-4.764 -2.433,-3.041 -2.433,-7.805 0,-7.096 5.271,-10.948 5.271,-3.953 13.989,-3.953 8.413,0 13.786,3.852 5.474,3.75 7.096,10.238 l -9.732,2.737 q -0.912,-4.562 -3.852,-6.387 -2.939,-1.926 -7.298,-1.926 -4.257,0 -6.69,1.622 -2.433,1.521 -2.433,4.359 0,3.041 2.331,4.46 2.433,1.419 6.488,2.129 l 3.548,0.608 q 5.372,0.912 9.832,2.534 4.461,1.622 6.995,4.663 2.635,3.041 2.635,8.11 0,7.501 -5.575,11.657 -5.575,4.156 -15.002,4.156 z m 51.553,0 q -7.603,0 -13.279,-3.143 -5.677,-3.243 -8.92,-9.021 -3.143,-5.879 -3.143,-13.583 v -1.217 q 0,-7.805 3.143,-13.583 3.142,-5.879 8.717,-9.022 5.677,-3.243 13.076,-3.243 7.198,0 12.57,3.243 5.474,3.143 8.515,8.819 3.041,5.677 3.041,13.279 v 3.954 h -38.418 q 0.202,6.589 4.359,10.542 4.257,3.852 10.542,3.852 5.879,0 8.819,-2.636 3.041,-2.635 4.662,-6.082 l 8.617,4.46 q -1.419,2.839 -4.156,5.981 -2.636,3.142 -6.995,5.271 -4.358,2.129 -11.15,2.129 z m -14.597,-31.525 h 27.673 q -0.405,-5.677 -4.054,-8.819 -3.65,-3.244 -9.529,-3.244 -5.879,0 -9.63,3.244 -3.649,3.142 -4.46,8.819 z m 62.298,31.525 q -5.372,0 -9.63,-1.825 -4.156,-1.824 -6.69,-5.372 -2.433,-3.548 -2.433,-8.616 0,-5.17 2.433,-8.515 2.534,-3.447 6.792,-5.17 4.359,-1.723 9.832,-1.723 h 15.205 v -3.244 q 0,-4.359 -2.635,-6.994 -2.636,-2.636 -8.11,-2.636 -5.372,0 -8.21,2.534 -2.839,2.535 -3.751,6.589 l -9.731,-3.142 q 1.216,-4.055 3.852,-7.299 2.737,-3.345 7.197,-5.372 4.46,-2.027 10.745,-2.027 9.731,0 15.306,4.967 5.575,4.967 5.575,14.09 v 20.577 q 0,3.041 2.839,3.041 h 4.257 v 8.718 h -7.805 q -3.548,0 -5.778,-1.825 -2.23,-1.825 -2.23,-4.967 v -0.304 h -1.521 q -0.811,1.521 -2.432,3.548 -1.622,2.027 -4.765,3.548 -3.142,1.419 -8.312,1.419 z m 1.521,-8.616 q 6.284,0 10.136,-3.548 3.852,-3.649 3.852,-9.934 v -1.014 h -14.596 q -4.157,0 -6.691,1.825 -2.534,1.723 -2.534,5.169 0,3.447 2.636,5.474 2.635,2.028 7.197,2.028 z m 38.483,7.197 v -49.974 h 10.238 v 5.879 h 1.622 q 1.216,-3.142 3.852,-4.561 2.737,-1.521 6.69,-1.521 h 5.981 v 9.427 h -6.386 q -5.069,0 -8.312,2.838 -3.244,2.737 -3.244,8.515 v 29.397 z m 56.102,1.419 q -7.197,0 -13.076,-3.041 -5.778,-3.041 -9.225,-8.819 -3.345,-5.778 -3.345,-13.887 v -1.318 q 0,-8.11 3.345,-13.786 3.447,-5.778 9.225,-8.819 5.879,-3.142 13.076,-3.142 7.197,0 12.265,2.635 5.069,2.636 8.11,6.994 3.142,4.359 4.054,9.63 l -10.136,2.129 q -0.507,-3.345 -2.129,-6.082 -1.622,-2.737 -4.561,-4.359 -2.94,-1.622 -7.4,-1.622 -4.359,0 -7.907,2.028 -3.446,1.926 -5.474,5.676 -2.027,3.649 -2.027,8.921 v 0.912 q 0,5.271 2.027,9.022 2.028,3.75 5.474,5.676 3.548,1.926 7.907,1.926 6.589,0 10.035,-3.345 3.447,-3.447 4.359,-8.718 l 10.137,2.332 q -1.217,5.17 -4.359,9.528 -3.041,4.359 -8.11,6.995 -5.068,2.534 -12.265,2.534 z m 30.456,-1.419 v -70.957 h 10.441 v 28.078 h 1.622 q 1.014,-1.926 2.838,-3.75 1.926,-1.825 4.967,-2.94 3.143,-1.216 7.907,-1.216 5.677,0 10.035,2.534 4.46,2.534 6.995,7.197 2.534,4.562 2.534,11.049 v 30.005 h -10.441 v -29.194 q 0,-6.487 -3.244,-9.529 -3.243,-3.142 -8.92,-3.142 -6.488,0 -10.441,4.258 -3.852,4.257 -3.852,12.366 v 25.241 z"
         id="text1127"
         aria-label="ZuperResearch" /><g
         id="g741"><path
           style="fill:url(#linearGradient1197);stroke:none;stroke-width:2.35779;stroke-linecap:round;stroke-linejoin:round;paint-order:stroke markers fill"
           d="m 20857.098,12738.948 h -2.947 a 9.218773,9.218773 0 0 0 -6.742,2.931 l -28.313,30.36 a 11.73608,11.73608 0 0 0 8.582,19.741 h 29.42 a 9.4311434,9.4311434 0 0 0 9.431,-9.431 v -34.17 a 9.4311434,9.4311434 0 0 0 -9.431,-9.431 z"
           id="path1127" /><path
           style="fill:url(#linearGradient1196);stroke:none;stroke-width:2.35779;stroke-linecap:round;stroke-linejoin:round;paint-order:stroke markers fill"
           d="m 20840.3,12729.516 v -2.946 a 9.218773,9.218773 0 0 0 -2.931,-6.743 l -30.36,-28.312 a 11.73608,11.73608 0 0 0 -19.74,8.582 v 29.419 a 9.4311434,9.4311434 0 0 0 9.431,9.431 h 34.169 a 9.4311434,9.4311434 0 0 0 9.431,-9.431 z"
           id="path1128" /><path
           style="fill:url(#linearGradient1195);stroke:none;stroke-width:2.35779;stroke-linecap:round;stroke-linejoin:round;paint-order:stroke markers fill"
           d="m 20866.529,12722.151 v 2.947 a 9.218773,9.218773 0 0 0 2.931,6.742 l 30.36,28.313 a 11.73608,11.73608 0 0 0 19.741,-8.583 v -29.419 a 9.4311434,9.4311434 0 0 0 -9.431,-9.431 h -34.17 a 9.4311434,9.4311434 0 0 0 -9.431,9.431 z"
           id="path1129" /><path
           style="fill:url(#linearGradient1194);stroke:none;stroke-width:2.35779;stroke-linecap:round;stroke-linejoin:round;paint-order:stroke markers fill"
           d="m 20849.732,12712.72 h 2.947 a 9.218773,9.218773 0 0 0 6.742,-2.932 l 28.313,-30.36 a 11.73608,11.73608 0 0 0 -8.583,-19.74 h -29.419 a 9.4311434,9.4311434 0 0 0 -9.431,9.431 v 34.17 a 9.4311434,9.4311434 0 0 0 9.431,9.431 z"
           id="path1130" /></g></g></g></svg>
