<?xml version="1.0" encoding="UTF-8" standalone="no"?>
<!-- Created with Inkscape (http://www.inkscape.org/) -->

<svg
   width="529.16663mm"
   height="529.16669mm"
   viewBox="0 0 529.16663 529.16669"
   version="1.1"
   id="svg1"
   xml:space="preserve"
   xmlns:xlink="http://www.w3.org/1999/xlink"
   xmlns="http://www.w3.org/2000/svg"
   xmlns:svg="http://www.w3.org/2000/svg"><defs
     id="defs1"><linearGradient
       id="linearGradient728"><stop
         style="stop-color:#07c9ff;stop-opacity:1;"
         offset="0"
         id="stop727" /><stop
         style="stop-color:#0779f2;stop-opacity:1;"
         offset="0.60000002"
         id="stop728" /></linearGradient><linearGradient
       xlink:href="#linearGradient728"
       id="linearGradient834"
       gradientUnits="userSpaceOnUse"
       gradientTransform="matrix(-2.3577858,0,0,-2.3577858,24494.487,12565.489)"
       x1="1078.4706"
       y1="39.590103"
       x2="1092.5612"
       y2="17.437691" /><linearGradient
       xlink:href="#linearGradient728"
       id="linearGradient836"
       gradientUnits="userSpaceOnUse"
       gradientTransform="matrix(0,-2.3577858,2.3577858,0,21836.939,15008.516)"
       x1="1078.4706"
       y1="39.590103"
       x2="1092.5612"
       y2="17.437691" /><linearGradient
       xlink:href="#linearGradient728"
       id="linearGradient837"
       gradientUnits="userSpaceOnUse"
       gradientTransform="matrix(0,2.3577858,-2.3577858,0,22051.46,9907.9374)"
       x1="1078.4706"
       y1="39.590103"
       x2="1092.5612"
       y2="17.437691" /><linearGradient
       xlink:href="#linearGradient728"
       id="linearGradient838"
       gradientUnits="userSpaceOnUse"
       gradientTransform="matrix(2.3577858,0,0,2.3577858,19393.911,12350.969)"
       x1="1078.4706"
       y1="39.590103"
       x2="1092.5612"
       y2="17.437691" /></defs><g
     id="layer1"
     transform="translate(-21426.678,-11246.208)"><g
       id="g827"
       transform="matrix(3.9999899,0,0,3.9999899,-66085.317,-38321.999)"><path
         style="fill:url(#linearGradient834);stroke:none;stroke-width:2.35779;stroke-linecap:round;stroke-linejoin:round;paint-order:stroke markers fill"
         d="m 21947.883,12471.343 h -2.947 a 9.218773,9.218773 0 0 0 -6.742,2.932 l -28.313,30.359 a 11.73608,11.73608 0 0 0 8.582,19.741 h 29.42 a 9.4311434,9.4311434 0 0 0 9.431,-9.431 v -34.17 a 9.4311434,9.4311434 0 0 0 -9.431,-9.431 z"
         id="path821" /><path
         style="fill:url(#linearGradient836);stroke:none;stroke-width:2.35779;stroke-linecap:round;stroke-linejoin:round;paint-order:stroke markers fill"
         d="m 21931.085,12461.912 v -2.947 a 9.218773,9.218773 0 0 0 -2.931,-6.742 l -30.36,-28.313 a 11.73608,11.73608 0 0 0 -19.74,8.582 v 29.42 a 9.4311434,9.4311434 0 0 0 9.431,9.431 h 34.169 a 9.4311434,9.4311434 0 0 0 9.431,-9.431 z"
         id="path822" /><path
         style="fill:url(#linearGradient837);stroke:none;stroke-width:2.35779;stroke-linecap:round;stroke-linejoin:round;paint-order:stroke markers fill"
         d="m 21957.314,12454.546 v 2.947 a 9.218773,9.218773 0 0 0 2.931,6.742 l 30.36,28.313 a 11.73608,11.73608 0 0 0 19.741,-8.583 v -29.419 a 9.4311434,9.4311434 0 0 0 -9.431,-9.431 h -34.17 a 9.4311434,9.4311434 0 0 0 -9.431,9.431 z"
         id="path826" /><path
         style="fill:url(#linearGradient838);stroke:none;stroke-width:2.35779;stroke-linecap:round;stroke-linejoin:round;paint-order:stroke markers fill"
         d="m 21940.517,12445.115 h 2.947 a 9.218773,9.218773 0 0 0 6.742,-2.932 l 28.313,-30.359 a 11.73608,11.73608 0 0 0 -8.583,-19.741 h -29.419 a 9.4311434,9.4311434 0 0 0 -9.431,9.431 v 34.17 a 9.4311434,9.4311434 0 0 0 9.431,9.431 z"
         id="path827" /></g></g></svg>
