<?xml version="1.0" encoding="UTF-8" standalone="no"?>
<!-- Created with Inkscape (http://www.inkscape.org/) -->

<svg
   width="1633.678mm"
   height="285.75mm"
   viewBox="0 0 1633.678 285.75"
   version="1.1"
   id="svg1"
   xml:space="preserve"
   xmlns:xlink="http://www.w3.org/1999/xlink"
   xmlns="http://www.w3.org/2000/svg"
   xmlns:svg="http://www.w3.org/2000/svg"><defs
     id="defs1"><linearGradient
       id="linearGradient728"><stop
         style="stop-color:#07c9ff;stop-opacity:1;"
         offset="0"
         id="stop727" /><stop
         style="stop-color:#0779f2;stop-opacity:1;"
         offset="0.60000002"
         id="stop728" /></linearGradient><linearGradient
       xlink:href="#linearGradient728"
       id="linearGradient1190"
       gradientUnits="userSpaceOnUse"
       gradientTransform="matrix(2.3577858,0,0,2.3577858,20380.804,12350.969)"
       x1="1078.4706"
       y1="39.590103"
       x2="1092.5612"
       y2="17.437691" /><linearGradient
       xlink:href="#linearGradient728"
       id="linearGradient1191"
       gradientUnits="userSpaceOnUse"
       gradientTransform="matrix(0,2.3577858,-2.3577858,0,23038.353,9907.9374)"
       x1="1078.4706"
       y1="39.590103"
       x2="1092.5612"
       y2="17.437691" /><linearGradient
       xlink:href="#linearGradient728"
       id="linearGradient1192"
       gradientUnits="userSpaceOnUse"
       gradientTransform="matrix(0,-2.3577858,2.3577858,0,22823.832,15008.516)"
       x1="1078.4706"
       y1="39.590103"
       x2="1092.5612"
       y2="17.437691" /><linearGradient
       xlink:href="#linearGradient728"
       id="linearGradient1193"
       gradientUnits="userSpaceOnUse"
       gradientTransform="matrix(-2.3577858,0,0,-2.3577858,25481.38,12565.489)"
       x1="1078.4706"
       y1="39.590103"
       x2="1092.5612"
       y2="17.437691" /></defs><g
     id="layer1"
     transform="translate(-21426.678,-12470.358)"><g
       id="g840"
       transform="matrix(2.1599946,0,0,2.1599946,-27961.484,-14296.475)"><path
         style="font-weight:500;font-size:101.367px;line-height:1.3;font-family:'Space Grotesk';-inkscape-font-specification:'Space Grotesk Medium';text-align:center;letter-spacing:-1.85451px;text-anchor:middle;stroke-width:1.30018;stroke-linecap:round;stroke-linejoin:round;paint-order:stroke markers fill"
         d="m 23017.512,12495.699 v -14.191 l 37.303,-45.514 v -1.419 h -36.188 v -9.833 h 47.44 v 14.192 l -37.303,45.513 v 1.42 h 37.708 v 9.832 z m 76.269,0.913 q -5.676,0 -10.137,-2.535 -4.46,-2.534 -6.994,-7.197 -2.534,-4.663 -2.534,-11.15 v -30.005 h 10.441 v 29.295 q 0,6.488 3.243,9.63 3.244,3.041 9.022,3.041 6.386,0 10.238,-4.257 3.953,-4.359 3.953,-12.468 v -25.241 h 10.441 v 49.974 h -10.238 v -7.501 h -1.622 q -1.419,3.041 -5.068,5.778 -3.649,2.636 -10.745,2.636 z m 36.988,19.361 v -70.248 h 10.238 v 7.197 h 1.622 q 1.926,-3.345 5.778,-5.98 3.953,-2.636 11.252,-2.636 6.284,0 11.454,3.041 5.271,3.041 8.413,8.819 3.244,5.677 3.244,13.786 v 1.521 q 0,8.109 -3.142,13.887 -3.143,5.676 -8.414,8.717 -5.271,3.041 -11.555,3.041 -4.866,0 -8.211,-1.216 -3.345,-1.216 -5.373,-3.041 -2.027,-1.926 -3.243,-3.953 h -1.622 v 27.065 z m 25.848,-27.978 q 6.893,0 11.252,-4.358 4.359,-4.359 4.359,-12.469 v -0.912 q 0,-8.008 -4.46,-12.367 -4.359,-4.358 -11.151,-4.358 -6.69,0 -11.15,4.358 -4.359,4.359 -4.359,12.367 v 0.912 q 0,8.11 4.359,12.469 4.46,4.358 11.15,4.358 z m 57.024,9.123 q -7.603,0 -13.279,-3.142 -5.677,-3.244 -8.921,-9.022 -3.142,-5.879 -3.142,-13.583 v -1.216 q 0,-7.806 3.142,-13.583 3.143,-5.88 8.718,-9.022 5.676,-3.244 13.076,-3.244 7.197,0 12.57,3.244 5.473,3.142 8.514,8.819 3.041,5.676 3.041,13.279 v 3.953 h -38.418 q 0.203,6.589 4.359,10.542 4.258,3.852 10.542,3.852 5.88,0 8.819,-2.635 3.041,-2.636 4.663,-6.082 l 8.616,4.46 q -1.419,2.838 -4.156,5.981 -2.635,3.142 -6.994,5.271 -4.359,2.128 -11.15,2.128 z m -14.597,-31.525 h 27.673 q -0.406,-5.676 -4.055,-8.819 -3.649,-3.243 -9.528,-3.243 -5.88,0 -9.63,3.243 -3.649,3.143 -4.46,8.819 z m 45.215,30.106 v -49.974 h 10.238 v 5.88 h 1.622 q 1.216,-3.143 3.852,-4.562 2.737,-1.52 6.69,-1.52 h 5.981 v 9.427 h -6.386 q -5.069,0 -8.312,2.838 -3.244,2.737 -3.244,8.515 v 29.396 z m 51.566,0 -19.767,-70.957 h 11.353 l 17.233,64.064 h 1.318 l 17.131,-64.064 h 11.353 l -19.666,70.957 z m 60.638,1.419 q -7.602,0 -13.279,-3.142 -5.676,-3.244 -8.92,-9.022 -3.143,-5.879 -3.143,-13.583 v -1.216 q 0,-7.806 3.143,-13.583 3.142,-5.88 8.717,-9.022 5.677,-3.244 13.077,-3.244 7.197,0 12.569,3.244 5.474,3.142 8.515,8.819 3.041,5.676 3.041,13.279 v 3.953 h -38.418 q 0.203,6.589 4.359,10.542 4.257,3.852 10.542,3.852 5.879,0 8.819,-2.635 3.041,-2.636 4.663,-6.082 l 8.616,4.46 q -1.419,2.838 -4.156,5.981 -2.636,3.142 -6.994,5.271 -4.359,2.128 -11.151,2.128 z m -14.597,-31.525 h 27.674 q -0.406,-5.676 -4.055,-8.819 -3.649,-3.243 -9.529,-3.243 -5.879,0 -9.629,3.243 -3.65,3.143 -4.461,8.819 z m 45.668,30.106 v -49.974 h 10.238 v 7.501 h 1.622 q 1.419,-3.041 5.068,-5.676 3.649,-2.636 10.847,-2.636 5.676,0 10.035,2.535 4.46,2.534 6.994,7.197 2.534,4.561 2.534,11.049 v 30.004 h -10.44 v -29.193 q 0,-6.488 -3.244,-9.529 -3.244,-3.142 -8.92,-3.142 -6.488,0 -10.441,4.257 -3.852,4.257 -3.852,12.367 v 25.24 z m 75.875,0 q -4.562,0 -7.298,-2.737 -2.636,-2.737 -2.636,-7.298 v -31.12 h -13.786 v -8.819 h 13.786 v -16.523 h 10.441 v 16.523 h 14.901 v 8.819 h -14.901 v 29.295 q 0,3.041 2.838,3.041 h 10.441 v 8.819 z m 42.734,0.913 q -5.676,0 -10.136,-2.535 -4.46,-2.534 -6.995,-7.197 -2.534,-4.663 -2.534,-11.15 v -30.005 h 10.441 v 29.295 q 0,6.488 3.244,9.63 3.243,3.041 9.021,3.041 6.386,0 10.238,-4.257 3.954,-4.359 3.954,-12.468 v -25.241 h 10.441 v 49.974 h -10.239 v -7.501 h -1.621 q -1.42,3.041 -5.069,5.778 -3.649,2.636 -10.745,2.636 z m 36.741,-0.913 v -49.974 h 10.238 v 5.88 h 1.622 q 1.217,-3.143 3.852,-4.562 2.737,-1.52 6.691,-1.52 h 5.98 v 9.427 h -6.386 q -5.068,0 -8.312,2.838 -3.244,2.737 -3.244,8.515 v 29.396 z m 54.677,1.419 q -7.602,0 -13.279,-3.142 -5.677,-3.244 -8.92,-9.022 -3.143,-5.879 -3.143,-13.583 v -1.216 q 0,-7.806 3.143,-13.583 3.142,-5.88 8.717,-9.022 5.677,-3.244 13.077,-3.244 7.197,0 12.569,3.244 5.474,3.142 8.515,8.819 3.041,5.676 3.041,13.279 v 3.953 h -38.418 q 0.203,6.589 4.359,10.542 4.257,3.852 10.542,3.852 5.879,0 8.819,-2.635 3.041,-2.636 4.663,-6.082 l 8.616,4.46 q -1.419,2.838 -4.156,5.981 -2.636,3.142 -6.995,5.271 -4.358,2.128 -11.15,2.128 z m -14.597,-31.525 h 27.673 q -0.405,-5.676 -4.054,-8.819 -3.649,-3.243 -9.529,-3.243 -5.879,0 -9.63,3.243 -3.649,3.143 -4.46,8.819 z"
         id="text1134"
         aria-label="ZuperVenture" /><g
         id="g811"><path
           style="fill:url(#linearGradient1193);stroke:none;stroke-width:2.35779;stroke-linecap:round;stroke-linejoin:round;paint-order:stroke markers fill"
           d="m 22934.776,12471.343 h -2.947 a 9.218773,9.218773 0 0 0 -6.742,2.932 l -28.313,30.359 a 11.73608,11.73608 0 0 0 8.582,19.741 h 29.42 a 9.4311434,9.4311434 0 0 0 9.431,-9.431 v -34.17 a 9.4311434,9.4311434 0 0 0 -9.431,-9.431 z"
           id="path1131" /><path
           style="fill:url(#linearGradient1192);stroke:none;stroke-width:2.35779;stroke-linecap:round;stroke-linejoin:round;paint-order:stroke markers fill"
           d="m 22917.978,12461.912 v -2.947 a 9.218773,9.218773 0 0 0 -2.931,-6.742 l -30.36,-28.313 a 11.73608,11.73608 0 0 0 -19.74,8.582 v 29.42 a 9.4311434,9.4311434 0 0 0 9.431,9.431 h 34.169 a 9.4311434,9.4311434 0 0 0 9.431,-9.431 z"
           id="path1139" /><path
           style="fill:url(#linearGradient1191);stroke:none;stroke-width:2.35779;stroke-linecap:round;stroke-linejoin:round;paint-order:stroke markers fill"
           d="m 22944.207,12454.546 v 2.947 a 9.218773,9.218773 0 0 0 2.931,6.742 l 30.36,28.313 a 11.73608,11.73608 0 0 0 19.741,-8.583 v -29.419 a 9.4311434,9.4311434 0 0 0 -9.431,-9.431 h -34.17 a 9.4311434,9.4311434 0 0 0 -9.431,9.431 z"
           id="path1140" /><path
           style="fill:url(#linearGradient1190);stroke:none;stroke-width:2.35779;stroke-linecap:round;stroke-linejoin:round;paint-order:stroke markers fill"
           d="m 22927.41,12445.115 h 2.947 a 9.218773,9.218773 0 0 0 6.742,-2.932 l 28.313,-30.359 a 11.73608,11.73608 0 0 0 -8.583,-19.741 h -29.419 a 9.4311434,9.4311434 0 0 0 -9.431,9.431 v 34.17 a 9.4311434,9.4311434 0 0 0 9.431,9.431 z"
           id="path1141" /></g></g></g></svg>
