<?xml version="1.0" encoding="UTF-8" standalone="no"?>
<!-- Created with Inkscape (http://www.inkscape.org/) -->

<svg
   width="529.17078mm"
   height="529.16669mm"
   viewBox="0 0 529.17078 529.16669"
   version="1.1"
   id="svg1"
   xml:space="preserve"
   xmlns:xlink="http://www.w3.org/1999/xlink"
   xmlns="http://www.w3.org/2000/svg"
   xmlns:svg="http://www.w3.org/2000/svg"><defs
     id="defs1"><linearGradient
       id="linearGradient743"><stop
         style="stop-color:#12acff;stop-opacity:1;"
         offset="0"
         id="stop742" /><stop
         style="stop-color:#0041de;stop-opacity:1;"
         offset="0.60000002"
         id="stop743" /></linearGradient><linearGradient
       xlink:href="#linearGradient743"
       id="linearGradient890"
       gradientUnits="userSpaceOnUse"
       gradientTransform="matrix(-2.3577858,0,0,-2.3577858,26142.812,12199.108)"
       x1="1078.4706"
       y1="39.590103"
       x2="1092.5612"
       y2="17.437691" /><linearGradient
       xlink:href="#linearGradient743"
       id="linearGradient891"
       gradientUnits="userSpaceOnUse"
       gradientTransform="matrix(0,-2.3577858,2.3577858,0,23485.264,14642.135)"
       x1="1078.4706"
       y1="39.590103"
       x2="1092.5612"
       y2="17.437691" /><linearGradient
       xlink:href="#linearGradient743"
       id="linearGradient896"
       gradientUnits="userSpaceOnUse"
       gradientTransform="matrix(0,2.3577858,-2.3577858,0,23699.785,9541.5572)"
       x1="1078.4706"
       y1="39.590103"
       x2="1092.5612"
       y2="17.437691" /><linearGradient
       xlink:href="#linearGradient743"
       id="linearGradient897"
       gradientUnits="userSpaceOnUse"
       gradientTransform="matrix(2.3577858,0,0,2.3577858,21042.236,11984.587)"
       x1="1078.4706"
       y1="39.590103"
       x2="1092.5612"
       y2="17.437691" /></defs><g
     id="layer1"
     transform="translate(-23513.266,-11246.208)"><g
       id="g853"
       transform="matrix(4.0000202,0,0,4.0000202,-70592.725,-36856.843)"><path
         style="fill:url(#linearGradient890);stroke:none;stroke-width:2.35779;stroke-linecap:round;stroke-linejoin:round;paint-order:stroke markers fill"
         d="m 23596.208,12104.962 h -2.947 a 9.218773,9.218773 0 0 0 -6.742,2.931 l -28.313,30.36 a 11.73608,11.73608 0 0 0 8.582,19.74 h 29.42 a 9.4311434,9.4311434 0 0 0 9.431,-9.431 v -34.169 a 9.4311434,9.4311434 0 0 0 -9.431,-9.431 z"
         id="path848" /><path
         style="fill:url(#linearGradient891);stroke:none;stroke-width:2.35779;stroke-linecap:round;stroke-linejoin:round;paint-order:stroke markers fill"
         d="m 23579.41,12095.53 v -2.947 a 9.218773,9.218773 0 0 0 -2.931,-6.742 l -30.36,-28.313 a 11.73608,11.73608 0 0 0 -19.74,8.583 v 29.419 a 9.4311434,9.4311434 0 0 0 9.431,9.431 h 34.169 a 9.4311434,9.4311434 0 0 0 9.431,-9.431 z"
         id="path849" /><path
         style="fill:url(#linearGradient896);stroke:none;stroke-width:2.35779;stroke-linecap:round;stroke-linejoin:round;paint-order:stroke markers fill"
         d="m 23605.639,12088.164 v 2.947 a 9.218773,9.218773 0 0 0 2.931,6.742 l 30.36,28.313 a 11.73608,11.73608 0 0 0 19.741,-8.583 v -29.419 a 9.4311434,9.4311434 0 0 0 -9.431,-9.431 h -34.17 a 9.4311434,9.4311434 0 0 0 -9.431,9.431 z"
         id="path850" /><path
         style="fill:url(#linearGradient897);stroke:none;stroke-width:2.35779;stroke-linecap:round;stroke-linejoin:round;paint-order:stroke markers fill"
         d="m 23588.842,12078.733 h 2.947 a 9.218773,9.218773 0 0 0 6.742,-2.931 l 28.313,-30.36 a 11.73608,11.73608 0 0 0 -8.583,-19.74 h -29.419 a 9.4311434,9.4311434 0 0 0 -9.431,9.431 v 34.169 a 9.4311434,9.4311434 0 0 0 9.431,9.431 z"
         id="path853" /></g></g></svg>
