<?xml version="1.0" encoding="UTF-8" standalone="no"?>
<!-- Created with Inkscape (http://www.inkscape.org/) -->

<svg
   width="1350.392mm"
   height="285.75mm"
   viewBox="0 0 1350.392 285.75"
   version="1.1"
   id="svg1"
   xml:space="preserve"
   xmlns:xlink="http://www.w3.org/1999/xlink"
   xmlns="http://www.w3.org/2000/svg"
   xmlns:svg="http://www.w3.org/2000/svg"><defs
     id="defs1"><linearGradient
       id="linearGradient743"><stop
         style="stop-color:#12acff;stop-opacity:1;"
         offset="0"
         id="stop742" /><stop
         style="stop-color:#0041de;stop-opacity:1;"
         offset="0.60000002"
         id="stop743" /></linearGradient><linearGradient
       xlink:href="#linearGradient743"
       id="linearGradient1170"
       gradientUnits="userSpaceOnUse"
       gradientTransform="matrix(2.3577858,0,0,2.3577858,21042.236,11984.587)"
       x1="1078.4706"
       y1="39.590103"
       x2="1092.5612"
       y2="17.437691" /><linearGradient
       xlink:href="#linearGradient743"
       id="linearGradient1171"
       gradientUnits="userSpaceOnUse"
       gradientTransform="matrix(0,2.3577858,-2.3577858,0,23699.785,9541.5572)"
       x1="1078.4706"
       y1="39.590103"
       x2="1092.5612"
       y2="17.437691" /><linearGradient
       xlink:href="#linearGradient743"
       id="linearGradient1172"
       gradientUnits="userSpaceOnUse"
       gradientTransform="matrix(0,-2.3577858,2.3577858,0,23485.264,14642.135)"
       x1="1078.4706"
       y1="39.590103"
       x2="1092.5612"
       y2="17.437691" /><linearGradient
       xlink:href="#linearGradient743"
       id="linearGradient1173"
       gradientUnits="userSpaceOnUse"
       gradientTransform="matrix(-2.3577858,0,0,-2.3577858,26142.812,12199.108)"
       x1="1078.4706"
       y1="39.590103"
       x2="1092.5612"
       y2="17.437691" /></defs><g
     id="layer1"
     transform="translate(-23513.266,-11934.905)"><g
       id="g898"
       transform="matrix(2.1600109,0,0,2.1600109,-27303.969,-14040.743)"><path
         style="font-weight:500;font-size:101.367px;line-height:1.3;font-family:'Space Grotesk';-inkscape-font-specification:'Space Grotesk Medium';text-align:center;letter-spacing:-1.85451px;text-anchor:middle;fill:#ffffff;stroke-width:1.30018;stroke-linecap:round;stroke-linejoin:round;paint-order:stroke markers fill"
         d="m 23678.945,12129.318 v -14.191 l 37.303,-45.514 v -1.419 h -36.188 v -9.833 h 47.44 v 14.192 l -37.303,45.514 v 1.419 h 37.708 v 9.832 z m 76.269,0.913 q -5.677,0 -10.137,-2.535 -4.46,-2.534 -6.994,-7.197 -2.534,-4.662 -2.534,-11.15 v -30.005 h 10.44 v 29.295 q 0,6.488 3.244,9.63 3.244,3.041 9.022,3.041 6.386,0 10.238,-4.257 3.953,-4.359 3.953,-12.468 v -25.241 h 10.441 v 49.974 h -10.238 v -7.501 h -1.622 q -1.419,3.041 -5.068,5.778 -3.649,2.636 -10.745,2.636 z m 36.988,19.361 v -70.248 h 10.238 v 7.197 h 1.622 q 1.926,-3.345 5.778,-5.98 3.953,-2.636 11.251,-2.636 6.285,0 11.455,3.041 5.271,3.041 8.413,8.819 3.244,5.677 3.244,13.786 v 1.521 q 0,8.109 -3.142,13.887 -3.143,5.676 -8.414,8.717 -5.271,3.041 -11.556,3.041 -4.865,0 -8.21,-1.216 -3.346,-1.216 -5.373,-3.041 -2.027,-1.926 -3.244,-3.953 h -1.622 v 27.065 z m 25.848,-27.978 q 6.893,0 11.252,-4.358 4.359,-4.359 4.359,-12.468 v -0.913 q 0,-8.008 -4.46,-12.367 -4.359,-4.358 -11.151,-4.358 -6.69,0 -11.15,4.358 -4.359,4.359 -4.359,12.367 v 0.913 q 0,8.109 4.359,12.468 4.46,4.358 11.15,4.358 z m 57.023,9.123 q -7.602,0 -13.279,-3.142 -5.676,-3.244 -8.92,-9.022 -3.142,-5.879 -3.142,-13.583 v -1.216 q 0,-7.805 3.142,-13.583 3.142,-5.88 8.718,-9.022 5.676,-3.244 13.076,-3.244 7.197,0 12.569,3.244 5.474,3.142 8.515,8.819 3.041,5.677 3.041,13.279 v 3.953 h -38.418 q 0.203,6.589 4.359,10.543 4.257,3.851 10.542,3.851 5.879,0 8.819,-2.635 3.041,-2.636 4.663,-6.082 l 8.616,4.46 q -1.419,2.838 -4.156,5.981 -2.635,3.142 -6.994,5.271 -4.359,2.128 -11.151,2.128 z m -14.596,-31.525 h 27.673 q -0.406,-5.676 -4.055,-8.819 -3.649,-3.243 -9.528,-3.243 -5.88,0 -9.63,3.243 -3.65,3.143 -4.46,8.819 z m 45.215,30.106 v -49.974 h 10.238 v 5.88 h 1.622 q 1.216,-3.143 3.852,-4.562 2.737,-1.52 6.69,-1.52 h 5.981 v 9.427 h -6.387 q -5.068,0 -8.312,2.838 -3.243,2.737 -3.243,8.515 v 29.396 z m 37.07,0 v -70.957 h 10.948 v 61.023 h 34.16 v 9.934 z m 69.103,1.419 q -5.373,0 -9.63,-1.824 -4.156,-1.825 -6.691,-5.373 -2.432,-3.547 -2.432,-8.616 0,-5.169 2.432,-8.515 2.535,-3.446 6.792,-5.169 4.359,-1.724 9.833,-1.724 h 15.205 v -3.243 q 0,-4.359 -2.636,-6.995 -2.635,-2.635 -8.109,-2.635 -5.373,0 -8.211,2.534 -2.838,2.534 -3.75,6.589 l -9.732,-3.142 q 1.217,-4.055 3.852,-7.299 2.737,-3.345 7.197,-5.372 4.46,-2.028 10.745,-2.028 9.731,0 15.307,4.967 5.575,4.967 5.575,14.09 v 20.578 q 0,3.041 2.838,3.041 h 4.257 v 8.717 h -7.805 q -3.548,0 -5.778,-1.824 -2.23,-1.825 -2.23,-4.967 v -0.304 h -1.52 q -0.811,1.52 -2.433,3.548 -1.622,2.027 -4.764,3.547 -3.143,1.419 -8.312,1.419 z m 1.52,-8.616 q 6.285,0 10.137,-3.548 3.852,-3.649 3.852,-9.934 v -1.013 h -14.597 q -4.156,0 -6.69,1.824 -2.535,1.724 -2.535,5.17 0,3.447 2.636,5.474 2.636,2.027 7.197,2.027 z m 68.494,8.616 q -7.298,0 -11.252,-2.635 -3.851,-2.636 -5.777,-5.879 h -1.622 v 7.095 h -10.238 v -70.957 h 10.44 v 27.775 h 1.622 q 1.217,-2.027 3.244,-3.852 2.027,-1.926 5.373,-3.142 3.345,-1.217 8.21,-1.217 6.285,0 11.556,3.041 5.271,3.041 8.414,8.819 3.142,5.778 3.142,13.786 v 1.521 q 0,8.109 -3.244,13.887 -3.142,5.676 -8.413,8.717 -5.17,3.041 -11.455,3.041 z m -3.041,-9.123 q 6.792,0 11.151,-4.358 4.46,-4.359 4.46,-12.468 v -0.913 q 0,-8.008 -4.359,-12.367 -4.359,-4.358 -11.252,-4.358 -6.69,0 -11.15,4.358 -4.359,4.359 -4.359,12.367 v 0.913 q 0,8.109 4.359,12.468 4.46,4.358 11.15,4.358 z m 52.143,9.123 q -9.529,0 -15.813,-4.257 -6.285,-4.257 -7.704,-12.874 l 9.731,-2.331 q 0.811,4.156 2.737,6.589 1.926,2.433 4.764,3.446 2.94,1.014 6.285,1.014 4.967,0 7.602,-1.926 2.737,-1.926 2.737,-4.967 0,-3.041 -2.534,-4.46 -2.534,-1.419 -7.501,-2.332 l -3.447,-0.608 q -5.068,-0.912 -9.224,-2.635 -4.156,-1.723 -6.589,-4.765 -2.433,-3.041 -2.433,-7.805 0,-7.095 5.271,-10.947 5.272,-3.954 13.989,-3.954 8.414,0 13.786,3.852 5.474,3.751 7.096,10.238 l -9.731,2.737 q -0.913,-4.561 -3.852,-6.386 -2.94,-1.926 -7.299,-1.926 -4.257,0 -6.69,1.622 -2.433,1.52 -2.433,4.359 0,3.041 2.332,4.46 2.432,1.419 6.487,2.129 l 3.548,0.608 q 5.372,0.912 9.832,2.534 4.461,1.622 6.995,4.663 2.635,3.041 2.635,8.109 0,7.501 -5.575,11.657 -5.575,4.156 -15.002,4.156 z"
         id="text1168"
         aria-label="ZuperLabs" /><g
         id="g842"><path
           style="fill:url(#linearGradient1173);stroke:none;stroke-width:2.35779;stroke-linecap:round;stroke-linejoin:round;paint-order:stroke markers fill"
           d="m 23596.208,12104.962 h -2.947 a 9.218773,9.218773 0 0 0 -6.742,2.931 l -28.313,30.36 a 11.73608,11.73608 0 0 0 8.582,19.74 h 29.42 a 9.4311434,9.4311434 0 0 0 9.431,-9.431 v -34.169 a 9.4311434,9.4311434 0 0 0 -9.431,-9.431 z"
           id="path1164" /><path
           style="fill:url(#linearGradient1172);stroke:none;stroke-width:2.35779;stroke-linecap:round;stroke-linejoin:round;paint-order:stroke markers fill"
           d="m 23579.41,12095.53 v -2.947 a 9.218773,9.218773 0 0 0 -2.931,-6.742 l -30.36,-28.313 a 11.73608,11.73608 0 0 0 -19.74,8.583 v 29.419 a 9.4311434,9.4311434 0 0 0 9.431,9.431 h 34.169 a 9.4311434,9.4311434 0 0 0 9.431,-9.431 z"
           id="path1168" /><path
           style="fill:url(#linearGradient1171);stroke:none;stroke-width:2.35779;stroke-linecap:round;stroke-linejoin:round;paint-order:stroke markers fill"
           d="m 23605.639,12088.164 v 2.947 a 9.218773,9.218773 0 0 0 2.931,6.742 l 30.36,28.313 a 11.73608,11.73608 0 0 0 19.741,-8.583 v -29.419 a 9.4311434,9.4311434 0 0 0 -9.431,-9.431 h -34.17 a 9.4311434,9.4311434 0 0 0 -9.431,9.431 z"
           id="path1169" /><path
           style="fill:url(#linearGradient1170);stroke:none;stroke-width:2.35779;stroke-linecap:round;stroke-linejoin:round;paint-order:stroke markers fill"
           d="m 23588.842,12078.733 h 2.947 a 9.218773,9.218773 0 0 0 6.742,-2.931 l 28.313,-30.36 a 11.73608,11.73608 0 0 0 -8.583,-19.74 h -29.419 a 9.4311434,9.4311434 0 0 0 -9.431,9.431 v 34.169 a 9.4311434,9.4311434 0 0 0 9.431,9.431 z"
           id="path1170" /></g></g></g></svg>
