<?xml version="1.0" encoding="UTF-8" standalone="no"?>
<!-- Created with Inkscape (http://www.inkscape.org/) -->

<svg
   width="2133.324mm"
   height="285.75mm"
   viewBox="0 0 2133.324 285.75"
   version="1.1"
   id="svg1"
   xml:space="preserve"
   xmlns="http://www.w3.org/2000/svg"
   xmlns:svg="http://www.w3.org/2000/svg"><defs
     id="defs1" /><g
     id="layer1"
     transform="translate(-14591.534,-15109.243)"><path
       style="font-weight:500;font-size:218.954px;line-height:1.3;font-family:'Space Grotesk';-inkscape-font-specification:'Space Grotesk Medium';text-align:center;letter-spacing:-4.00574px;text-anchor:middle;fill:#ffffff;stroke-width:4.01;stroke-linecap:round;stroke-linejoin:round;paint-order:stroke markers fill"
       d="m 14591.533,15332.464 v -43.768 l 115.05,-140.375 v -4.376 h -111.61 v -30.325 h 146.313 v 43.768 l -115.05,140.374 v 4.377 h 116.301 v 30.325 z m 235.231,2.815 q -17.509,0 -31.265,-7.816 -13.756,-7.817 -21.572,-22.198 -7.816,-14.381 -7.816,-34.39 v -92.54 h 32.203 v 90.352 q 0,20.009 10.003,29.7 10.005,9.38 27.825,9.38 19.696,0 31.576,-13.131 12.194,-13.443 12.194,-38.454 v -77.847 h 32.201 v 154.129 h -31.576 v -23.134 h -5.003 q -4.377,9.378 -15.631,17.82 -11.256,8.129 -33.139,8.129 z m 114.078,59.713 v -216.657 h 31.575 v 22.198 h 5.002 q 5.941,-10.318 17.821,-18.447 12.193,-8.127 34.703,-8.127 19.383,0 35.327,9.378 16.258,9.379 25.95,27.199 10.004,17.509 10.004,42.519 v 4.689 q 0,25.012 -9.691,42.832 -9.693,17.507 -25.95,26.887 -16.257,9.379 -35.64,9.379 -15.007,0 -25.324,-3.752 -10.317,-3.751 -16.569,-9.378 -6.253,-5.942 -10.005,-12.194 h -5.002 v 83.474 z m 79.722,-86.287 q 21.259,0 34.702,-13.444 13.444,-13.443 13.444,-38.455 v -2.813 q 0,-24.698 -13.756,-38.142 -13.444,-13.444 -34.39,-13.444 -20.635,0 -34.391,13.444 -13.443,13.444 -13.443,38.142 v 2.813 q 0,25.012 13.443,38.455 13.756,13.444 34.391,13.444 z m 175.871,28.137 q -23.448,0 -40.955,-9.692 -17.509,-10.004 -27.513,-27.825 -9.692,-18.132 -9.692,-41.893 v -3.751 q 0,-24.074 9.692,-41.894 9.691,-18.132 26.887,-27.825 17.507,-10.003 40.33,-10.003 22.198,0 38.767,10.003 16.883,9.693 26.261,27.2 9.38,17.508 9.38,40.955 v 12.193 h -118.49 q 0.625,20.321 13.443,32.515 13.132,11.88 32.515,11.88 18.133,0 27.2,-8.129 9.378,-8.129 14.381,-18.758 l 26.574,13.756 q -4.378,8.753 -12.818,18.445 -8.128,9.693 -21.572,16.258 -13.443,6.565 -34.39,6.565 z m -45.021,-97.23 h 85.351 q -1.251,-17.507 -12.505,-27.2 -11.256,-10.005 -29.388,-10.005 -18.133,0 -29.701,10.005 -11.255,9.693 -13.757,27.2 z m 139.454,92.852 v -154.129 h 31.576 v 18.132 h 5.003 q 3.751,-9.691 11.88,-14.068 8.442,-4.689 20.634,-4.689 h 18.445 v 29.075 h -19.696 q -15.632,0 -25.635,8.754 -10.005,8.44 -10.005,26.262 v 90.663 z m 194.15,4.378 q -40.019,0 -63.466,-22.51 -23.448,-22.823 -23.448,-65.653 v -51.273 q 0,-42.832 23.448,-65.341 23.447,-22.823 63.466,-22.823 39.392,0 60.651,21.885 21.571,21.885 21.571,59.713 v 1.876 h -33.452 v -2.814 q 0,-22.196 -12.192,-36.265 -11.88,-14.069 -36.578,-14.069 -25.012,0 -39.081,15.319 -14.068,15.006 -14.068,41.893 v 52.524 q 0,26.574 14.068,41.892 14.069,15.32 39.081,15.32 24.698,0 36.578,-14.069 12.192,-14.381 12.192,-36.265 v -5.316 h 33.452 v 4.378 q 0,37.828 -21.571,59.713 -21.259,21.885 -60.651,21.885 z m 180.009,0 q -23.135,0 -41.268,-9.379 -17.821,-9.693 -28.137,-27.513 -10.318,-17.819 -10.318,-42.206 v -4.689 q 0,-24.385 10.318,-41.893 10.316,-17.82 28.137,-27.513 18.133,-9.69 41.268,-9.69 23.135,0 41.267,9.69 18.134,9.693 28.45,27.513 10.318,17.508 10.318,41.893 v 4.689 q 0,24.387 -10.318,42.206 -10.316,17.82 -28.45,27.513 -18.132,9.379 -41.267,9.379 z m 0,-28.763 q 21.258,0 34.389,-13.443 13.443,-13.756 13.443,-37.83 v -2.813 q 0,-24.074 -13.13,-37.517 -13.131,-13.756 -34.702,-13.756 -20.946,0 -34.39,13.756 -13.132,13.443 -13.132,37.517 v 2.813 q 0,24.074 13.132,37.83 13.444,13.443 34.39,13.443 z m 102.682,24.385 v -218.844 h 32.203 v 218.844 z m 60.956,0 v -218.844 h 32.201 v 218.844 z m 131.611,4.378 q -23.447,0 -40.956,-9.692 -17.507,-10.004 -27.512,-27.825 -9.691,-18.132 -9.691,-41.893 v -3.751 q 0,-24.074 9.691,-41.894 9.692,-18.132 26.887,-27.825 17.508,-10.003 40.33,-10.003 22.197,0 38.768,10.003 16.881,9.693 26.261,27.2 9.378,17.508 9.378,40.955 v 12.193 h -118.488 q 0.625,20.321 13.443,32.515 13.131,11.88 32.514,11.88 18.132,0 27.199,-8.129 9.38,-8.129 14.382,-18.758 l 26.574,13.756 q -4.377,8.753 -12.818,18.445 -8.129,9.693 -21.572,16.258 -13.444,6.565 -34.39,6.565 z m -45.02,-97.23 h 85.35 q -1.251,-17.507 -12.506,-27.2 -11.254,-10.005 -29.388,-10.005 -18.132,0 -29.7,10.005 -11.255,9.693 -13.756,27.2 z m 218.104,97.23 q -22.196,0 -40.33,-9.379 -17.82,-9.38 -28.45,-27.2 -10.317,-17.82 -10.317,-42.831 v -4.064 q 0,-25.011 10.317,-42.519 10.63,-17.82 28.45,-27.2 18.134,-9.69 40.33,-9.69 22.197,0 37.83,8.127 15.632,8.129 25.01,21.572 9.693,13.443 12.505,29.701 l -31.263,6.565 q -1.563,-10.317 -6.565,-18.757 -5.002,-8.442 -14.069,-13.444 -9.067,-5.003 -22.823,-5.003 -13.443,0 -24.385,6.253 -10.63,5.941 -16.883,17.508 -6.252,11.255 -6.252,27.512 v 2.813 q 0,16.258 6.252,27.825 6.253,11.568 16.883,17.508 10.942,5.94 24.385,5.94 20.322,0 30.952,-10.317 10.629,-10.629 13.443,-26.887 l 31.264,7.191 q -3.751,15.945 -13.444,29.388 -9.378,13.443 -25.01,21.572 -15.633,7.816 -37.83,7.816 z m 157.638,-4.378 q -14.069,0 -22.509,-8.44 -8.129,-8.441 -8.129,-22.51 v -95.98 h -42.519 v -27.199 h 42.519 v -50.961 h 32.201 v 50.961 h 45.957 v 27.199 h -45.957 v 90.353 q 0,9.378 8.754,9.378 h 32.202 v 27.199 z m 70.435,0 v -154.129 h 32.201 v 154.129 z m 16.257,-175.076 q -9.379,0 -15.945,-5.94 -6.252,-6.252 -6.252,-15.945 0,-9.691 6.252,-15.631 6.566,-6.252 15.945,-6.252 9.691,0 15.944,6.252 6.254,5.94 6.254,15.631 0,9.693 -6.254,15.945 -6.253,5.94 -15.944,5.94 z m 89.655,175.076 -51.898,-154.129 h 34.078 l 40.955,130.37 h 5.002 l 40.956,-130.37 h 34.077 l -51.897,154.129 z m 184.355,4.378 q -23.448,0 -40.955,-9.692 -17.508,-10.004 -27.512,-27.825 -9.692,-18.132 -9.692,-41.893 v -3.751 q 0,-24.074 9.692,-41.894 9.691,-18.132 26.887,-27.825 17.507,-10.003 40.33,-10.003 22.197,0 38.766,10.003 16.883,9.693 26.261,27.2 9.38,17.508 9.38,40.955 v 12.193 h -118.49 q 0.626,20.321 13.444,32.515 13.132,11.88 32.515,11.88 18.132,0 27.199,-8.129 9.379,-8.129 14.382,-18.758 l 26.574,13.756 q -4.378,8.753 -12.818,18.445 -8.129,9.693 -21.572,16.258 -13.444,6.565 -34.391,6.565 z m -45.02,-97.23 h 85.351 q -1.251,-17.507 -12.506,-27.2 -11.256,-10.005 -29.388,-10.005 -18.132,0 -29.701,10.005 -11.254,9.693 -13.756,27.2 z"
       id="path919"
       aria-label="ZuperCollective" /></g></svg>
