<?xml version="1.0" encoding="UTF-8" standalone="no"?>
<!-- Created with Inkscape (http://www.inkscape.org/) -->

<svg
   width="529.16663mm"
   height="529.16669mm"
   viewBox="0 0 529.16663 529.16669"
   version="1.1"
   id="svg1"
   xml:space="preserve"
   xmlns:xlink="http://www.w3.org/1999/xlink"
   xmlns="http://www.w3.org/2000/svg"
   xmlns:svg="http://www.w3.org/2000/svg"><defs
     id="defs1"><linearGradient
       id="linearGradient663"><stop
         style="stop-color:#ffffff;stop-opacity:0.37000003;"
         offset="0.05"
         id="stop656" /><stop
         style="stop-color:#ffffff;stop-opacity:0.64999998;"
         offset="0.35863379"
         id="stop657" /><stop
         style="stop-color:#ffffff;stop-opacity:0.85000002;"
         offset="0.67000002"
         id="stop658" /><stop
         style="stop-color:#ffffff;stop-opacity:1;"
         offset="0.87"
         id="stop663" /></linearGradient><linearGradient
       xlink:href="#linearGradient663"
       id="linearGradient723"
       gradientUnits="userSpaceOnUse"
       gradientTransform="matrix(-5.0466072,0,0,-5.0466072,62403.745,21471.465)"
       x1="9433.0371"
       y1="1491.0262"
       x2="9420.4453"
       y2="1513.7244" /><linearGradient
       xlink:href="#linearGradient663"
       id="linearGradient725"
       gradientUnits="userSpaceOnUse"
       gradientTransform="matrix(0,-5.0466072,5.0466072,0,7187.002,61353.207)"
       x1="9433.0371"
       y1="1491.0262"
       x2="9420.4453"
       y2="1513.7244" /><linearGradient
       xlink:href="#linearGradient663"
       id="linearGradient736"
       gradientUnits="userSpaceOnUse"
       gradientTransform="matrix(0,5.0466072,-5.0466072,0,22522.003,-33745.276)"
       x1="9433.0371"
       y1="1491.0262"
       x2="9420.4453"
       y2="1513.7244" /><linearGradient
       xlink:href="#linearGradient663"
       id="linearGradient737"
       gradientUnits="userSpaceOnUse"
       gradientTransform="matrix(5.0466072,0,0,5.0466072,-32694.737,6136.466)"
       x1="9433.0371"
       y1="1491.0262"
       x2="9420.4453"
       y2="1513.7244" /></defs><g
     id="layer1"
     transform="translate(-14759.253,-13177.011)"><g
       id="g674"
       transform="matrix(1.8518519,0,0,1.8518519,-12484.503,-12121.306)"><path
         style="fill:url(#linearGradient723);fill-opacity:1;fill-rule:evenodd;stroke:none;stroke-width:5.09283;stroke-linecap:round;stroke-linejoin:round;paint-order:stroke markers fill"
         d="m 14862.458,13832.292 h -6.365 a 19.91255,19.91255 0 0 0 -14.563,6.332 l -61.156,65.577 a 25.349934,25.349934 0 0 0 18.539,42.64 h 63.545 a 20.37127,20.37127 0 0 0 20.371,-20.372 v -73.806 a 20.37127,20.37127 0 0 0 -20.371,-20.371 z"
         id="path653" /><path
         style="fill:url(#linearGradient725);fill-opacity:1;fill-rule:evenodd;stroke:none;stroke-width:5.09283;stroke-linecap:round;stroke-linejoin:round;paint-order:stroke markers fill"
         d="m 14826.176,13811.92 v -6.365 a 19.91255,19.91255 0 0 0 -6.331,-14.563 l -65.578,-61.156 a 25.349934,25.349934 0 0 0 -42.639,18.539 v 63.545 a 20.37127,20.37127 0 0 0 20.371,20.371 h 73.806 a 20.37127,20.37127 0 0 0 20.371,-20.371 z"
         id="path655" /><path
         style="fill:url(#linearGradient736);fill-opacity:1;fill-rule:evenodd;stroke:none;stroke-width:5.09283;stroke-linecap:round;stroke-linejoin:round;paint-order:stroke markers fill"
         d="m 14882.83,13796.01 v 6.365 a 19.91255,19.91255 0 0 0 6.331,14.563 l 65.578,61.156 a 25.349934,25.349934 0 0 0 42.639,-18.539 v -63.545 a 20.37127,20.37127 0 0 0 -20.371,-20.371 h -73.806 a 20.37127,20.37127 0 0 0 -20.371,20.371 z"
         id="path656" /><path
         style="fill:url(#linearGradient737);fill-opacity:1;fill-rule:evenodd;stroke:none;stroke-width:5.09283;stroke-linecap:round;stroke-linejoin:round;paint-order:stroke markers fill"
         d="m 14846.548,13775.639 h 6.365 a 19.91255,19.91255 0 0 0 14.563,-6.332 l 61.156,-65.577 a 25.349934,25.349934 0 0 0 -18.538,-42.639 h -63.546 a 20.37127,20.37127 0 0 0 -20.371,20.371 v 73.806 a 20.37127,20.37127 0 0 0 20.371,20.371 z"
         id="path674" /></g></g></svg>
