<?xml version="1.0" encoding="UTF-8" standalone="no"?>
<!-- Created with Inkscape (http://www.inkscape.org/) -->

<svg
   width="529.17078mm"
   height="529.16669mm"
   viewBox="0 0 529.17078 529.16669"
   version="1.1"
   id="svg1"
   xml:space="preserve"
   xmlns:xlink="http://www.w3.org/1999/xlink"
   xmlns="http://www.w3.org/2000/svg"
   xmlns:svg="http://www.w3.org/2000/svg"><defs
     id="defs1"><linearGradient
       id="linearGradient692"><stop
         style="stop-color:#0041de;stop-opacity:1;"
         offset="0.05"
         id="stop689" /><stop
         style="stop-color:#0779f2;stop-opacity:1;"
         offset="0.35863379"
         id="stop690" /><stop
         style="stop-color:#5ed914;stop-opacity:1;"
         offset="0.67000002"
         id="stop691" /><stop
         style="stop-color:#cfeb00;stop-opacity:1;"
         offset="0.87"
         id="stop692" /></linearGradient><linearGradient
       xlink:href="#linearGradient692"
       id="linearGradient1071"
       gradientUnits="userSpaceOnUse"
       gradientTransform="matrix(-2.3363922,0,0,-2.3363922,36792.366,14713.597)"
       x1="9433.0371"
       y1="1491.0262"
       x2="9420.4453"
       y2="1513.7244" /><linearGradient
       xlink:href="#linearGradient692"
       id="linearGradient1072"
       gradientUnits="userSpaceOnUse"
       gradientTransform="matrix(0,-2.3363922,2.3363922,0,11229.059,33177.366)"
       x1="9433.0371"
       y1="1491.0262"
       x2="9420.4453"
       y2="1513.7244" /><linearGradient
       xlink:href="#linearGradient692"
       id="linearGradient1073"
       gradientUnits="userSpaceOnUse"
       gradientTransform="matrix(0,2.3363922,-2.3363922,0,18328.596,-10849.709)"
       x1="9433.0371"
       y1="1491.0262"
       x2="9420.4453"
       y2="1513.7244" /><linearGradient
       xlink:href="#linearGradient692"
       id="linearGradient1074"
       gradientUnits="userSpaceOnUse"
       gradientTransform="matrix(2.3363922,0,0,2.3363922,-7234.7085,7614.0608)"
       x1="9433.0371"
       y1="1491.0262"
       x2="9420.4453"
       y2="1513.7244" /></defs><g
     id="layer1"
     transform="translate(-14714.618,-11246.208)"><g
       id="g1071"
       transform="matrix(3.9999899,0,0,3.9999899,-44135.962,-33144.412)"><path
         style="fill:url(#linearGradient1071);fill-opacity:1;fill-rule:evenodd;stroke:none;stroke-width:2.35779;stroke-linecap:round;stroke-linejoin:round;paint-order:stroke markers fill"
         d="m 14782.511,11176.943 h -2.947 a 9.218773,9.218773 0 0 0 -6.742,2.932 l -28.313,30.36 a 11.73608,11.73608 0 0 0 8.583,19.74 h 29.419 a 9.4311434,9.4311434 0 0 0 9.431,-9.431 v -34.17 a 9.4311434,9.4311434 0 0 0 -9.431,-9.431 z"
         id="path1068" /><path
         style="fill:url(#linearGradient1072);fill-opacity:1;fill-rule:evenodd;stroke:none;stroke-width:2.35779;stroke-linecap:round;stroke-linejoin:round;paint-order:stroke markers fill"
         d="m 14765.714,11167.512 v -2.947 a 9.218773,9.218773 0 0 0 -2.931,-6.742 l -30.36,-28.313 a 11.73608,11.73608 0 0 0 -19.741,8.583 v 29.419 a 9.4311434,9.4311434 0 0 0 9.431,9.431 h 34.17 a 9.4311434,9.4311434 0 0 0 9.431,-9.431 z"
         id="path1069" /><path
         style="fill:url(#linearGradient1073);fill-opacity:1;fill-rule:evenodd;stroke:none;stroke-width:2.35779;stroke-linecap:round;stroke-linejoin:round;paint-order:stroke markers fill"
         d="m 14791.942,11160.146 v 2.947 a 9.218773,9.218773 0 0 0 2.932,6.741 l 30.359,28.314 a 11.73608,11.73608 0 0 0 19.742,-8.583 v -29.419 a 9.4311434,9.4311434 0 0 0 -9.433,-9.431 h -34.169 a 9.4311434,9.4311434 0 0 0 -9.431,9.431 z"
         id="path1070" /><path
         style="fill:url(#linearGradient1074);fill-opacity:1;fill-rule:evenodd;stroke:none;stroke-width:2.35779;stroke-linecap:round;stroke-linejoin:round;paint-order:stroke markers fill"
         d="m 14775.145,11150.715 h 2.947 a 9.218773,9.218773 0 0 0 6.742,-2.931 l 28.313,-30.36 a 11.73608,11.73608 0 0 0 -8.583,-19.741 h -29.419 a 9.4311434,9.4311434 0 0 0 -9.431,9.431 v 34.17 a 9.4311434,9.4311434 0 0 0 9.431,9.431 z"
         id="path1071" /></g></g></svg>
