<?xml version="1.0" encoding="UTF-8" standalone="no"?>
<!-- Created with Inkscape (http://www.inkscape.org/) -->

<svg
   width="529.16663mm"
   height="529.16669mm"
   viewBox="0 0 529.16663 529.16669"
   version="1.1"
   id="svg1"
   xml:space="preserve"
   xmlns:xlink="http://www.w3.org/1999/xlink"
   xmlns="http://www.w3.org/2000/svg"
   xmlns:svg="http://www.w3.org/2000/svg"><defs
     id="defs1"><linearGradient
       id="linearGradient464"><stop
         style="stop-color:#000000;stop-opacity:0.37;"
         offset="0.05"
         id="stop455" /><stop
         style="stop-color:#000000;stop-opacity:0.64999998;"
         offset="0.35863379"
         id="stop462" /><stop
         style="stop-color:#000000;stop-opacity:0.85000002;"
         offset="0.67000002"
         id="stop463" /><stop
         style="stop-color:#000000;stop-opacity:1;"
         offset="0.87"
         id="stop464" /></linearGradient><linearGradient
       xlink:href="#linearGradient464"
       id="linearGradient522"
       gradientUnits="userSpaceOnUse"
       gradientTransform="matrix(-5.0466072,0,0,-5.0466072,62430.204,20930.733)"
       x1="9433.0371"
       y1="1491.0262"
       x2="9420.4453"
       y2="1513.7244" /><linearGradient
       xlink:href="#linearGradient464"
       id="linearGradient523"
       gradientUnits="userSpaceOnUse"
       gradientTransform="matrix(0,-5.0466072,5.0466072,0,7213.461,60812.475)"
       x1="9433.0371"
       y1="1491.0262"
       x2="9420.4453"
       y2="1513.7244" /><linearGradient
       xlink:href="#linearGradient464"
       id="linearGradient524"
       gradientUnits="userSpaceOnUse"
       gradientTransform="matrix(0,5.0466072,-5.0466072,0,22548.462,-34286.008)"
       x1="9433.0371"
       y1="1491.0262"
       x2="9420.4453"
       y2="1513.7244" /><linearGradient
       xlink:href="#linearGradient464"
       id="linearGradient526"
       gradientUnits="userSpaceOnUse"
       gradientTransform="matrix(5.0466072,0,0,5.0466072,-32668.278,5595.7343)"
       x1="9433.0371"
       y1="1491.0262"
       x2="9420.4453"
       y2="1513.7244" /></defs><g
     id="layer1"
     transform="translate(-15543.502,-13177.011)"><g
       id="g380"
       transform="matrix(1.8518519,0,0,1.8518519,-11749.253,-11119.95)"><path
         style="fill:url(#linearGradient522);fill-opacity:1;fill-rule:evenodd;stroke:none;stroke-width:5.09283;stroke-linecap:round;stroke-linejoin:round;paint-order:stroke markers fill"
         d="m 14888.917,13291.56 h -6.365 a 19.91255,19.91255 0 0 0 -14.563,6.332 l -61.156,65.577 a 25.349934,25.349934 0 0 0 18.539,42.64 h 63.545 a 20.37127,20.37127 0 0 0 20.371,-20.371 v -73.807 a 20.37127,20.37127 0 0 0 -20.371,-20.371 z"
         id="path376" /><path
         style="fill:url(#linearGradient523);fill-opacity:1;fill-rule:evenodd;stroke:none;stroke-width:5.09283;stroke-linecap:round;stroke-linejoin:round;paint-order:stroke markers fill"
         d="m 14852.635,13271.188 v -6.365 a 19.91255,19.91255 0 0 0 -6.331,-14.563 l -65.578,-61.156 a 25.349934,25.349934 0 0 0 -42.639,18.539 v 63.545 a 20.37127,20.37127 0 0 0 20.371,20.371 h 73.806 a 20.37127,20.37127 0 0 0 20.371,-20.371 z"
         id="path377" /><path
         style="fill:url(#linearGradient524);fill-opacity:1;fill-rule:evenodd;stroke:none;stroke-width:5.09283;stroke-linecap:round;stroke-linejoin:round;paint-order:stroke markers fill"
         d="m 14909.289,13255.278 v 6.365 a 19.91255,19.91255 0 0 0 6.331,14.563 l 65.578,61.156 a 25.349934,25.349934 0 0 0 42.639,-18.538 v -63.546 a 20.37127,20.37127 0 0 0 -20.371,-20.371 h -73.806 a 20.37127,20.37127 0 0 0 -20.371,20.371 z"
         id="path378" /><path
         style="fill:url(#linearGradient526);fill-opacity:1;fill-rule:evenodd;stroke:none;stroke-width:5.09283;stroke-linecap:round;stroke-linejoin:round;paint-order:stroke markers fill"
         d="m 14873.007,13234.907 h 6.365 a 19.91255,19.91255 0 0 0 14.563,-6.331 l 61.156,-65.578 a 25.349934,25.349934 0 0 0 -18.538,-42.639 h -63.546 a 20.37127,20.37127 0 0 0 -20.371,20.371 v 73.806 a 20.37127,20.37127 0 0 0 20.371,20.371 z"
         id="path379" /></g></g></svg>
