<?xml version="1.0" encoding="UTF-8" standalone="no"?>
<!-- Created with Inkscape (http://www.inkscape.org/) -->

<svg
   width="1823.6053mm"
   height="285.75mm"
   viewBox="0 0 1823.6053 285.75"
   version="1.1"
   id="svg1"
   xml:space="preserve"
   xmlns:xlink="http://www.w3.org/1999/xlink"
   xmlns="http://www.w3.org/2000/svg"
   xmlns:svg="http://www.w3.org/2000/svg"><defs
     id="defs1"><linearGradient
       id="linearGradient464"><stop
         style="stop-color:#000000;stop-opacity:0.37;"
         offset="0.05"
         id="stop455" /><stop
         style="stop-color:#000000;stop-opacity:0.64999998;"
         offset="0.35863379"
         id="stop462" /><stop
         style="stop-color:#000000;stop-opacity:0.85000002;"
         offset="0.67000002"
         id="stop463" /><stop
         style="stop-color:#000000;stop-opacity:1;"
         offset="0.87"
         id="stop464" /></linearGradient><linearGradient
       xlink:href="#linearGradient464"
       id="linearGradient72"
       gradientUnits="userSpaceOnUse"
       gradientTransform="matrix(-5.0466072,0,0,-5.0466072,62430.204,20930.733)"
       x1="9433.0371"
       y1="1491.0262"
       x2="9420.4453"
       y2="1513.7244" /><linearGradient
       xlink:href="#linearGradient464"
       id="linearGradient74"
       gradientUnits="userSpaceOnUse"
       gradientTransform="matrix(0,-5.0466072,5.0466072,0,7213.461,60812.475)"
       x1="9433.0371"
       y1="1491.0262"
       x2="9420.4453"
       y2="1513.7244" /><linearGradient
       xlink:href="#linearGradient464"
       id="linearGradient75"
       gradientUnits="userSpaceOnUse"
       gradientTransform="matrix(0,5.0466072,-5.0466072,0,22548.462,-34286.008)"
       x1="9433.0371"
       y1="1491.0262"
       x2="9420.4453"
       y2="1513.7244" /><linearGradient
       xlink:href="#linearGradient464"
       id="linearGradient76"
       gradientUnits="userSpaceOnUse"
       gradientTransform="matrix(5.0466072,0,0,5.0466072,-32668.278,5595.7343)"
       x1="9433.0371"
       y1="1491.0262"
       x2="9420.4453"
       y2="1513.7244" /></defs><g
     id="layer1"
     transform="translate(-14738.087,-13913.23)"><g
       id="g739"
       transform="translate(0,792.87059)"><path
         style="font-weight:500;font-size:218.954px;line-height:1.3;font-family:'Space Grotesk';-inkscape-font-specification:'Space Grotesk Medium';text-align:center;letter-spacing:-4.00574px;text-anchor:middle;stroke-width:2.80839;stroke-linecap:round;stroke-linejoin:round;paint-order:stroke markers fill"
         d="m 15067.627,13344.173 v -30.654 l 80.575,-98.31 v -3.065 h -78.166 v -21.239 h 102.47 v 30.654 l -80.575,98.31 v 3.065 h 81.451 v 21.239 z m 164.743,1.97 q -12.262,0 -21.896,-5.473 -9.634,-5.474 -15.108,-15.546 -5.474,-10.072 -5.474,-24.085 v -64.81 h 22.553 v 63.277 q 0,14.013 7.006,20.801 7.007,6.568 19.487,6.568 13.794,0 22.114,-9.196 8.54,-9.415 8.54,-26.931 v -54.519 h 22.552 v 107.944 h -22.114 v -16.203 h -3.504 q -3.065,6.569 -10.947,12.481 -7.883,5.692 -23.209,5.692 z m 79.894,41.821 v -151.735 h 22.114 v 15.545 h 3.503 q 4.161,-7.225 12.481,-12.918 8.539,-5.693 24.304,-5.693 13.575,0 24.741,6.569 11.386,6.568 18.174,19.049 7.006,12.261 7.006,29.778 v 3.284 q 0,17.516 -6.787,29.997 -6.788,12.261 -18.174,18.83 -11.385,6.568 -24.96,6.568 -10.51,0 -17.736,-2.627 -7.225,-2.628 -11.604,-6.569 -4.379,-4.16 -7.007,-8.539 h -3.503 v 58.461 z m 55.833,-60.432 q 14.889,0 24.304,-9.415 9.415,-9.415 9.415,-26.931 v -1.971 q 0,-17.297 -9.634,-26.712 -9.415,-9.415 -24.085,-9.415 -14.451,0 -24.085,9.415 -9.415,9.415 -9.415,26.712 v 1.971 q 0,17.516 9.415,26.931 9.634,9.415 24.085,9.415 z m 123.171,19.706 q -16.422,0 -28.683,-6.787 -12.262,-7.007 -19.268,-19.487 -6.788,-12.7 -6.788,-29.34 v -2.628 q 0,-16.859 6.788,-29.339 6.787,-12.7 18.83,-19.487 12.261,-7.007 28.245,-7.007 15.546,0 27.15,7.007 11.824,6.787 18.392,19.049 6.569,12.261 6.569,28.683 v 8.539 h -82.984 q 0.438,14.232 9.415,22.771 9.197,8.32 22.772,8.32 12.699,0 19.049,-5.692 6.568,-5.693 10.072,-13.138 l 18.611,9.634 q -3.066,6.131 -8.977,12.919 -5.693,6.787 -15.108,11.385 -9.415,4.598 -24.085,4.598 z m -31.53,-68.094 h 59.775 q -0.876,-12.262 -8.758,-19.049 -7.883,-7.007 -20.582,-7.007 -12.699,0 -20.801,7.007 -7.882,6.787 -9.634,19.049 z m 97.666,65.029 v -107.944 h 22.114 v 12.699 h 3.504 q 2.627,-6.788 8.32,-9.853 5.912,-3.284 14.451,-3.284 h 12.918 v 20.362 h -13.794 q -10.948,0 -17.954,6.131 -7.007,5.912 -7.007,18.392 v 63.497 z m 135.972,3.065 q -28.027,0 -44.448,-15.764 -16.422,-15.984 -16.422,-45.981 v -35.908 q 0,-29.997 16.422,-45.762 16.421,-15.983 44.448,-15.983 27.588,0 42.477,15.326 15.107,15.327 15.107,41.821 v 1.313 h -23.428 v -1.97 q 0,-15.546 -8.539,-25.399 -8.32,-9.853 -25.617,-9.853 -17.517,0 -27.37,10.729 -9.853,10.51 -9.853,29.34 v 36.784 q 0,18.611 9.853,29.34 9.853,10.729 27.37,10.729 17.297,0 25.617,-9.853 8.539,-10.072 8.539,-25.399 v -3.722 h 23.428 v 3.065 q 0,26.494 -15.107,41.82 -14.889,15.327 -42.477,15.327 z m 126.068,0 q -16.202,0 -28.901,-6.568 -12.481,-6.788 -19.706,-19.268 -7.226,-12.481 -7.226,-29.559 v -3.284 q 0,-17.079 7.226,-29.34 7.225,-12.481 19.706,-19.268 12.699,-6.788 28.901,-6.788 16.203,0 28.902,6.788 12.7,6.787 19.925,19.268 7.226,12.261 7.226,29.34 v 3.284 q 0,17.078 -7.226,29.559 -7.225,12.48 -19.925,19.268 -12.699,6.568 -28.902,6.568 z m 0,-20.144 q 14.889,0 24.085,-9.415 9.415,-9.634 9.415,-26.493 v -1.971 q 0,-16.859 -9.196,-26.274 -9.196,-9.634 -24.304,-9.634 -14.669,0 -24.084,9.634 -9.197,9.415 -9.197,26.274 v 1.971 q 0,16.859 9.197,26.493 9.415,9.415 24.084,9.415 z m 71.914,17.079 v -153.268 h 22.553 v 153.268 z m 42.69,0 v -153.268 h 22.552 v 153.268 z m 92.173,3.065 q -16.421,0 -28.683,-6.787 -12.261,-7.007 -19.268,-19.487 -6.787,-12.7 -6.787,-29.34 v -2.628 q 0,-16.859 6.787,-29.339 6.788,-12.7 18.83,-19.487 12.262,-7.007 28.245,-7.007 15.546,0 27.151,7.007 11.823,6.787 18.392,19.049 6.568,12.261 6.568,28.683 v 8.539 h -82.983 q 0.438,14.232 9.415,22.771 9.196,8.32 22.771,8.32 12.699,0 19.049,-5.692 6.569,-5.693 10.072,-13.138 l 18.611,9.634 q -3.065,6.131 -8.977,12.919 -5.693,6.787 -15.108,11.385 -9.415,4.598 -24.085,4.598 z m -31.529,-68.094 h 59.774 q -0.876,-12.262 -8.758,-19.049 -7.882,-7.007 -20.582,-7.007 -12.699,0 -20.8,7.007 -7.883,6.787 -9.634,19.049 z m 152.748,68.094 q -15.545,0 -28.245,-6.568 -12.48,-6.569 -19.925,-19.049 -7.225,-12.481 -7.225,-29.997 v -2.847 q 0,-17.516 7.225,-29.777 7.445,-12.481 19.925,-19.049 12.7,-6.788 28.245,-6.788 15.546,0 26.494,5.693 10.947,5.693 17.516,15.108 6.788,9.415 8.758,20.8 l -21.895,4.598 q -1.095,-7.225 -4.598,-13.137 -3.503,-5.912 -9.853,-9.415 -6.35,-3.503 -15.984,-3.503 -9.415,0 -17.078,4.379 -7.445,4.16 -11.824,12.261 -4.379,7.883 -4.379,19.268 v 1.971 q 0,11.386 4.379,19.487 4.379,8.101 11.824,12.261 7.663,4.16 17.078,4.16 14.232,0 21.677,-7.225 7.444,-7.444 9.415,-18.83 l 21.895,5.036 q -2.627,11.167 -9.415,20.582 -6.569,9.415 -17.516,15.107 -10.948,5.474 -26.494,5.474 z m 110.401,-3.065 q -9.853,0 -15.764,-5.912 -5.693,-5.912 -5.693,-15.765 v -67.218 h -29.778 v -19.049 h 29.778 v -35.69 h 22.552 v 35.69 h 32.186 v 19.049 h -32.186 v 63.277 q 0,6.569 6.131,6.569 h 22.552 v 19.049 z m 49.329,0 v -107.944 h 22.552 v 107.944 z m 11.386,-122.614 q -6.569,0 -11.167,-4.161 -4.379,-4.379 -4.379,-11.166 0,-6.788 4.379,-10.948 4.598,-4.379 11.167,-4.379 6.787,0 11.166,4.379 4.38,4.16 4.38,10.948 0,6.787 -4.38,11.166 -4.379,4.161 -11.166,4.161 z m 62.789,122.614 -36.346,-107.944 h 23.866 l 28.683,91.303 h 3.503 l 28.683,-91.303 h 23.866 l -36.346,107.944 z m 129.113,3.065 q -16.422,0 -28.683,-6.787 -12.262,-7.007 -19.268,-19.487 -6.788,-12.7 -6.788,-29.34 v -2.628 q 0,-16.859 6.788,-29.339 6.787,-12.7 18.83,-19.487 12.261,-7.007 28.245,-7.007 15.546,0 27.15,7.007 11.824,6.787 18.392,19.049 6.569,12.261 6.569,28.683 v 8.539 h -82.984 q 0.438,14.232 9.415,22.771 9.197,8.32 22.772,8.32 12.699,0 19.049,-5.692 6.568,-5.693 10.072,-13.138 l 18.611,9.634 q -3.066,6.131 -8.977,12.919 -5.693,6.787 -15.108,11.385 -9.415,4.598 -24.085,4.598 z m -31.53,-68.094 h 59.775 q -0.876,-12.262 -8.758,-19.049 -7.883,-7.007 -20.582,-7.007 -12.699,0 -20.801,7.007 -7.882,6.787 -9.634,19.049 z"
         id="text828-1"
         aria-label="ZuperCollective" /><g
         id="g80"><path
           style="fill:url(#linearGradient72);fill-opacity:1;fill-rule:evenodd;stroke:none;stroke-width:5.09283;stroke-linecap:round;stroke-linejoin:round;paint-order:stroke markers fill"
           d="m 14888.917,13291.56 h -6.365 a 19.91255,19.91255 0 0 0 -14.563,6.332 l -61.156,65.577 a 25.349934,25.349934 0 0 0 18.539,42.64 h 63.545 a 20.37127,20.37127 0 0 0 20.371,-20.371 v -73.807 a 20.37127,20.37127 0 0 0 -20.371,-20.371 z"
           id="path828-0" /><path
           style="fill:url(#linearGradient74);fill-opacity:1;fill-rule:evenodd;stroke:none;stroke-width:5.09283;stroke-linecap:round;stroke-linejoin:round;paint-order:stroke markers fill"
           d="m 14852.635,13271.188 v -6.365 a 19.91255,19.91255 0 0 0 -6.331,-14.563 l -65.578,-61.156 a 25.349934,25.349934 0 0 0 -42.639,18.539 v 63.545 a 20.37127,20.37127 0 0 0 20.371,20.371 h 73.806 a 20.37127,20.37127 0 0 0 20.371,-20.371 z"
           id="path832-7" /><path
           style="fill:url(#linearGradient75);fill-opacity:1;fill-rule:evenodd;stroke:none;stroke-width:5.09283;stroke-linecap:round;stroke-linejoin:round;paint-order:stroke markers fill"
           d="m 14909.289,13255.278 v 6.365 a 19.91255,19.91255 0 0 0 6.331,14.563 l 65.578,61.156 a 25.349934,25.349934 0 0 0 42.639,-18.538 v -63.546 a 20.37127,20.37127 0 0 0 -20.371,-20.371 h -73.806 a 20.37127,20.37127 0 0 0 -20.371,20.371 z"
           id="path833-73" /><path
           style="fill:url(#linearGradient76);fill-opacity:1;fill-rule:evenodd;stroke:none;stroke-width:5.09283;stroke-linecap:round;stroke-linejoin:round;paint-order:stroke markers fill"
           d="m 14873.007,13234.907 h 6.365 a 19.91255,19.91255 0 0 0 14.563,-6.331 l 61.156,-65.578 a 25.349934,25.349934 0 0 0 -18.538,-42.639 h -63.546 a 20.37127,20.37127 0 0 0 -20.371,20.371 v 73.806 a 20.37127,20.37127 0 0 0 20.371,20.371 z"
           id="path834-6" /></g></g></g></svg>
