<?xml version="1.0" encoding="UTF-8" standalone="no"?>
<!-- Created with Inkscape (http://www.inkscape.org/) -->

<svg
   width="1823.5961mm"
   height="285.75mm"
   viewBox="0 0 1823.5961 285.75"
   version="1.1"
   id="svg1"
   xml:space="preserve"
   xmlns:xlink="http://www.w3.org/1999/xlink"
   xmlns="http://www.w3.org/2000/svg"
   xmlns:svg="http://www.w3.org/2000/svg"><defs
     id="defs1"><linearGradient
       id="linearGradient692"><stop
         style="stop-color:#0041de;stop-opacity:1;"
         offset="0.05"
         id="stop689" /><stop
         style="stop-color:#0779f2;stop-opacity:1;"
         offset="0.35863379"
         id="stop690" /><stop
         style="stop-color:#5ed914;stop-opacity:1;"
         offset="0.67000002"
         id="stop691" /><stop
         style="stop-color:#cfeb00;stop-opacity:1;"
         offset="0.87"
         id="stop692" /></linearGradient><linearGradient
       xlink:href="#linearGradient692"
       id="linearGradient1063"
       gradientUnits="userSpaceOnUse"
       gradientTransform="matrix(-2.3363922,0,0,-2.3363922,36792.366,14713.597)"
       x1="9433.0371"
       y1="1491.0262"
       x2="9420.4453"
       y2="1513.7244" /><linearGradient
       xlink:href="#linearGradient692"
       id="linearGradient1064"
       gradientUnits="userSpaceOnUse"
       gradientTransform="matrix(0,-2.3363922,2.3363922,0,11229.059,33177.366)"
       x1="9433.0371"
       y1="1491.0262"
       x2="9420.4453"
       y2="1513.7244" /><linearGradient
       xlink:href="#linearGradient692"
       id="linearGradient1065"
       gradientUnits="userSpaceOnUse"
       gradientTransform="matrix(0,2.3363922,-2.3363922,0,18328.596,-10849.709)"
       x1="9433.0371"
       y1="1491.0262"
       x2="9420.4453"
       y2="1513.7244" /><linearGradient
       xlink:href="#linearGradient692"
       id="linearGradient1066"
       gradientUnits="userSpaceOnUse"
       gradientTransform="matrix(2.3363922,0,0,2.3363922,-7234.7085,7614.0608)"
       x1="9433.0371"
       y1="1491.0262"
       x2="9420.4453"
       y2="1513.7244" /></defs><g
     id="layer1"
     transform="translate(-14714.619,-12470.358)"><g
       id="g1074"
       transform="matrix(2.1599946,0,0,2.1599946,-17064.696,-11500.578)"><path
         style="font-weight:500;font-size:101.367px;line-height:1.3;font-family:'Space Grotesk';-inkscape-font-specification:'Space Grotesk Medium';text-align:center;letter-spacing:-1.85451px;text-anchor:middle;stroke-width:1.30018;stroke-linecap:round;stroke-linejoin:round;paint-order:stroke markers fill"
         d="m 14865.249,11201.301 v -14.192 l 37.303,-45.513 v -1.42 h -36.188 v -9.832 h 47.44 v 14.191 l -37.303,45.514 v 1.419 h 37.709 v 9.833 z m 76.269,0.912 q -5.676,0 -10.136,-2.534 -4.46,-2.534 -6.995,-7.197 -2.534,-4.663 -2.534,-11.151 v -30.004 h 10.441 v 29.295 q 0,6.487 3.244,9.63 3.244,3.041 9.021,3.041 6.387,0 10.239,-4.258 3.953,-4.358 3.953,-12.468 v -25.24 h 10.441 v 49.974 h -10.238 v -7.501 h -1.622 q -1.419,3.041 -5.069,5.778 -3.649,2.635 -10.745,2.635 z m 36.988,19.361 v -70.247 h 10.238 v 7.197 h 1.622 q 1.926,-3.345 5.778,-5.981 3.953,-2.635 11.252,-2.635 6.285,0 11.454,3.041 5.271,3.041 8.414,8.819 3.244,5.676 3.244,13.786 v 1.52 q 0,8.109 -3.143,13.887 -3.142,5.677 -8.413,8.718 -5.271,3.041 -11.556,3.041 -4.866,0 -8.211,-1.216 -3.345,-1.217 -5.372,-3.041 -2.028,-1.926 -3.244,-3.954 h -1.622 v 27.065 z m 25.849,-27.977 q 6.893,0 11.252,-4.359 4.358,-4.359 4.358,-12.468 v -0.912 q 0,-8.008 -4.46,-12.367 -4.359,-4.359 -11.15,-4.359 -6.69,0 -11.15,4.359 -4.359,4.359 -4.359,12.367 v 0.912 q 0,8.109 4.359,12.468 4.46,4.359 11.15,4.359 z m 57.023,9.123 q -7.603,0 -13.279,-3.142 -5.677,-3.244 -8.92,-9.022 -3.143,-5.879 -3.143,-13.583 v -1.217 q 0,-7.805 3.143,-13.583 3.142,-5.879 8.717,-9.022 5.677,-3.243 13.077,-3.243 7.197,0 12.569,3.243 5.474,3.143 8.515,8.819 3.041,5.677 3.041,13.279 v 3.954 h -38.418 q 0.203,6.589 4.359,10.542 4.257,3.852 10.542,3.852 5.879,0 8.819,-2.636 3.041,-2.635 4.663,-6.082 l 8.616,4.46 q -1.419,2.839 -4.156,5.981 -2.636,3.143 -6.995,5.271 -4.358,2.129 -11.15,2.129 z m -14.597,-31.525 h 27.673 q -0.405,-5.677 -4.054,-8.819 -3.65,-3.244 -9.529,-3.244 -5.879,0 -9.63,3.244 -3.649,3.142 -4.46,8.819 z m 45.215,30.106 v -49.974 h 10.238 v 5.879 h 1.622 q 1.217,-3.142 3.852,-4.561 2.737,-1.521 6.691,-1.521 h 5.98 v 9.427 h -6.386 q -5.068,0 -8.312,2.839 -3.244,2.736 -3.244,8.514 v 29.397 z m 62.95,1.419 q -12.975,0 -20.578,-7.299 -7.602,-7.399 -7.602,-21.287 v -16.624 q 0,-13.887 7.602,-21.185 7.603,-7.4 20.578,-7.4 12.772,0 19.665,7.095 6.994,7.096 6.994,19.362 v 0.608 h -10.846 v -0.913 q 0,-7.197 -3.953,-11.758 -3.852,-4.562 -11.86,-4.562 -8.11,0 -12.671,4.967 -4.562,4.866 -4.562,13.584 v 17.029 q 0,8.616 4.562,13.583 4.561,4.967 12.671,4.967 8.008,0 11.86,-4.561 3.953,-4.663 3.953,-11.759 v -1.723 h 10.846 v 1.419 q 0,12.266 -6.994,19.361 -6.893,7.096 -19.665,7.096 z m 58.365,0 q -7.501,0 -13.381,-3.041 -5.778,-3.142 -9.123,-8.92 -3.345,-5.778 -3.345,-13.685 v -1.52 q 0,-7.907 3.345,-13.584 3.345,-5.778 9.123,-8.92 5.88,-3.142 13.381,-3.142 7.501,0 13.38,3.142 5.879,3.142 9.225,8.92 3.345,5.677 3.345,13.584 v 1.52 q 0,7.907 -3.345,13.685 -3.346,5.778 -9.225,8.92 -5.879,3.041 -13.38,3.041 z m 0,-9.326 q 6.893,0 11.15,-4.359 4.359,-4.46 4.359,-12.265 v -0.912 q 0,-7.806 -4.258,-12.164 -4.257,-4.461 -11.251,-4.461 -6.792,0 -11.151,4.461 -4.257,4.358 -4.257,12.164 v 0.912 q 0,7.805 4.257,12.265 4.359,4.359 11.151,4.359 z m 33.293,7.907 v -70.957 h 10.441 v 70.957 z m 19.763,0 v -70.957 h 10.441 v 70.957 z m 42.673,1.419 q -7.603,0 -13.279,-3.142 -5.677,-3.244 -8.92,-9.022 -3.143,-5.879 -3.143,-13.583 v -1.217 q 0,-7.805 3.143,-13.583 3.142,-5.879 8.717,-9.022 5.677,-3.243 13.076,-3.243 7.198,0 12.57,3.243 5.474,3.143 8.515,8.819 3.041,5.677 3.041,13.279 v 3.954 h -38.418 q 0.202,6.589 4.359,10.542 4.257,3.852 10.542,3.852 5.879,0 8.819,-2.636 3.041,-2.635 4.662,-6.082 l 8.617,4.46 q -1.419,2.839 -4.156,5.981 -2.636,3.143 -6.995,5.271 -4.358,2.129 -11.15,2.129 z m -14.597,-31.525 h 27.673 q -0.405,-5.677 -4.054,-8.819 -3.65,-3.244 -9.529,-3.244 -5.879,0 -9.63,3.244 -3.649,3.142 -4.46,8.819 z m 70.717,31.525 q -7.197,0 -13.077,-3.041 -5.778,-3.041 -9.224,-8.819 -3.345,-5.778 -3.345,-13.887 v -1.318 q 0,-8.109 3.345,-13.786 3.446,-5.778 9.224,-8.819 5.88,-3.142 13.077,-3.142 7.197,0 12.265,2.635 5.068,2.636 8.109,6.995 3.143,4.358 4.055,9.629 l -10.137,2.129 q -0.506,-3.345 -2.128,-6.082 -1.622,-2.737 -4.562,-4.359 -2.939,-1.622 -7.4,-1.622 -4.358,0 -7.906,2.028 -3.447,1.926 -5.474,5.676 -2.027,3.65 -2.027,8.921 v 0.912 q 0,5.271 2.027,9.022 2.027,3.75 5.474,5.676 3.548,1.926 7.906,1.926 6.589,0 10.036,-3.345 3.446,-3.446 4.358,-8.718 l 10.137,2.332 q -1.216,5.17 -4.359,9.528 -3.041,4.359 -8.109,6.995 -5.068,2.534 -12.265,2.534 z m 51.111,-1.419 q -4.562,0 -7.299,-2.737 -2.635,-2.737 -2.635,-7.299 v -31.119 h -13.786 v -8.819 h 13.786 v -16.523 h 10.441 v 16.523 h 14.901 v 8.819 h -14.901 v 29.295 q 0,3.041 2.838,3.041 h 10.441 v 8.819 z m 22.837,0 v -49.974 h 10.441 v 49.974 z m 5.271,-56.766 q -3.041,0 -5.169,-1.926 -2.028,-2.027 -2.028,-5.169 0,-3.143 2.028,-5.069 2.128,-2.027 5.169,-2.027 3.143,0 5.17,2.027 2.027,1.926 2.027,5.069 0,3.142 -2.027,5.169 -2.027,1.926 -5.17,1.926 z m 29.069,56.766 -16.827,-49.974 h 11.049 l 13.279,42.27 h 1.622 l 13.279,-42.27 h 11.049 l -16.827,49.974 z m 59.774,1.419 q -7.602,0 -13.279,-3.142 -5.676,-3.244 -8.92,-9.022 -3.143,-5.879 -3.143,-13.583 v -1.217 q 0,-7.805 3.143,-13.583 3.142,-5.879 8.717,-9.022 5.677,-3.243 13.077,-3.243 7.197,0 12.569,3.243 5.474,3.143 8.515,8.819 3.041,5.677 3.041,13.279 v 3.954 h -38.418 q 0.203,6.589 4.359,10.542 4.257,3.852 10.542,3.852 5.879,0 8.819,-2.636 3.041,-2.635 4.663,-6.082 l 8.616,4.46 q -1.419,2.839 -4.156,5.981 -2.636,3.143 -6.994,5.271 -4.359,2.129 -11.151,2.129 z m -14.597,-31.525 h 27.674 q -0.406,-5.677 -4.055,-8.819 -3.649,-3.244 -9.529,-3.244 -5.879,0 -9.63,3.244 -3.649,3.142 -4.46,8.819 z"
         id="text642-2"
         aria-label="ZuperCollective" /><g
         id="g1067"><path
           style="fill:url(#linearGradient1063);fill-opacity:1;fill-rule:evenodd;stroke:none;stroke-width:2.35779;stroke-linecap:round;stroke-linejoin:round;paint-order:stroke markers fill"
           d="m 14782.511,11176.943 h -2.947 a 9.218773,9.218773 0 0 0 -6.742,2.932 l -28.313,30.36 a 11.73608,11.73608 0 0 0 8.583,19.74 h 29.419 a 9.4311434,9.4311434 0 0 0 9.431,-9.431 v -34.17 a 9.4311434,9.4311434 0 0 0 -9.431,-9.431 z"
           id="path642-4" /><path
           style="fill:url(#linearGradient1064);fill-opacity:1;fill-rule:evenodd;stroke:none;stroke-width:2.35779;stroke-linecap:round;stroke-linejoin:round;paint-order:stroke markers fill"
           d="m 14765.714,11167.512 v -2.947 a 9.218773,9.218773 0 0 0 -2.931,-6.742 l -30.36,-28.313 a 11.73608,11.73608 0 0 0 -19.741,8.583 v 29.419 a 9.4311434,9.4311434 0 0 0 9.431,9.431 h 34.17 a 9.4311434,9.4311434 0 0 0 9.431,-9.431 z"
           id="path643-3" /><path
           style="fill:url(#linearGradient1065);fill-opacity:1;fill-rule:evenodd;stroke:none;stroke-width:2.35779;stroke-linecap:round;stroke-linejoin:round;paint-order:stroke markers fill"
           d="m 14791.942,11160.146 v 2.947 a 9.218773,9.218773 0 0 0 2.932,6.741 l 30.359,28.314 a 11.73608,11.73608 0 0 0 19.742,-8.583 v -29.419 a 9.4311434,9.4311434 0 0 0 -9.433,-9.431 h -34.169 a 9.4311434,9.4311434 0 0 0 -9.431,9.431 z"
           id="path644-2" /><path
           style="fill:url(#linearGradient1066);fill-opacity:1;fill-rule:evenodd;stroke:none;stroke-width:2.35779;stroke-linecap:round;stroke-linejoin:round;paint-order:stroke markers fill"
           d="m 14775.145,11150.715 h 2.947 a 9.218773,9.218773 0 0 0 6.742,-2.931 l 28.313,-30.36 a 11.73608,11.73608 0 0 0 -8.583,-19.741 h -29.419 a 9.4311434,9.4311434 0 0 0 -9.431,9.431 v 34.17 a 9.4311434,9.4311434 0 0 0 9.431,9.431 z"
           id="path645-8" /></g></g></g></svg>
