<?xml version="1.0" encoding="UTF-8" standalone="no"?>
<!-- Created with Inkscape (http://www.inkscape.org/) -->

<svg
   width="1823.6053mm"
   height="285.75mm"
   viewBox="0 0 1823.6053 285.75"
   version="1.1"
   id="svg1"
   xml:space="preserve"
   xmlns:xlink="http://www.w3.org/1999/xlink"
   xmlns="http://www.w3.org/2000/svg"
   xmlns:svg="http://www.w3.org/2000/svg"><defs
     id="defs1"><linearGradient
       id="linearGradient663"><stop
         style="stop-color:#ffffff;stop-opacity:0.37000003;"
         offset="0.05"
         id="stop656" /><stop
         style="stop-color:#ffffff;stop-opacity:0.64999998;"
         offset="0.35863379"
         id="stop657" /><stop
         style="stop-color:#ffffff;stop-opacity:0.85000002;"
         offset="0.67000002"
         id="stop658" /><stop
         style="stop-color:#ffffff;stop-opacity:1;"
         offset="0.87"
         id="stop663" /></linearGradient><linearGradient
       xlink:href="#linearGradient663"
       id="linearGradient77"
       gradientUnits="userSpaceOnUse"
       gradientTransform="matrix(-5.0466072,0,0,-5.0466072,62403.745,21471.465)"
       x1="9433.0371"
       y1="1491.0262"
       x2="9420.4453"
       y2="1513.7244" /><linearGradient
       xlink:href="#linearGradient663"
       id="linearGradient78"
       gradientUnits="userSpaceOnUse"
       gradientTransform="matrix(0,-5.0466072,5.0466072,0,7187.002,61353.207)"
       x1="9433.0371"
       y1="1491.0262"
       x2="9420.4453"
       y2="1513.7244" /><linearGradient
       xlink:href="#linearGradient663"
       id="linearGradient79"
       gradientUnits="userSpaceOnUse"
       gradientTransform="matrix(0,5.0466072,-5.0466072,0,22522.003,-33745.276)"
       x1="9433.0371"
       y1="1491.0262"
       x2="9420.4453"
       y2="1513.7244" /><linearGradient
       xlink:href="#linearGradient663"
       id="linearGradient80"
       gradientUnits="userSpaceOnUse"
       gradientTransform="matrix(5.0466072,0,0,5.0466072,-32694.737,6136.466)"
       x1="9433.0371"
       y1="1491.0262"
       x2="9420.4453"
       y2="1513.7244" /></defs><g
     id="layer1"
     transform="translate(-14711.628,-14453.962)"><g
       id="g737"
       transform="translate(0,792.87059)"><path
         style="font-weight:500;font-size:218.954px;line-height:1.3;font-family:'Space Grotesk';-inkscape-font-specification:'Space Grotesk Medium';text-align:center;letter-spacing:-4.00574px;text-anchor:middle;fill:#ffffff;stroke-width:2.80839;stroke-linecap:round;stroke-linejoin:round;paint-order:stroke markers fill"
         d="m 15041.168,13884.903 v -30.653 l 80.575,-98.311 v -3.065 h -78.166 v -21.238 h 102.47 v 30.653 l -80.575,98.31 v 3.066 h 81.451 v 21.238 z m 164.743,1.971 q -12.262,0 -21.896,-5.474 -9.634,-5.474 -15.108,-15.546 -5.474,-10.072 -5.474,-24.085 v -64.81 h 22.553 v 63.278 q 0,14.013 7.006,20.8 7.007,6.569 19.487,6.569 13.794,0 22.114,-9.196 8.54,-9.415 8.54,-26.931 v -54.52 h 22.552 v 107.944 h -22.114 v -16.202 h -3.504 q -3.065,6.568 -10.947,12.48 -7.883,5.693 -23.209,5.693 z m 79.894,41.82 v -151.735 h 22.114 v 15.546 h 3.503 q 4.161,-7.226 12.481,-12.919 8.539,-5.692 24.304,-5.692 13.575,0 24.741,6.568 11.386,6.569 18.174,19.049 7.006,12.262 7.006,29.778 v 3.284 q 0,17.517 -6.787,29.997 -6.788,12.261 -18.174,18.83 -11.385,6.569 -24.96,6.569 -10.51,0 -17.736,-2.628 -7.225,-2.627 -11.604,-6.568 -4.379,-4.161 -7.007,-8.54 h -3.503 v 58.461 z m 55.833,-60.431 q 14.889,0 24.304,-9.415 9.415,-9.415 9.415,-26.932 v -1.97 q 0,-17.297 -9.634,-26.713 -9.415,-9.415 -24.085,-9.415 -14.451,0 -24.085,9.415 -9.415,9.416 -9.415,26.713 v 1.97 q 0,17.517 9.415,26.932 9.634,9.415 24.085,9.415 z m 123.171,19.706 q -16.422,0 -28.683,-6.788 -12.262,-7.006 -19.268,-19.487 -6.788,-12.699 -6.788,-29.34 v -2.627 q 0,-16.86 6.788,-29.34 6.787,-12.699 18.83,-19.487 12.261,-7.006 28.245,-7.006 15.546,0 27.15,7.006 11.824,6.788 18.392,19.049 6.569,12.262 6.569,28.683 v 8.539 h -82.984 q 0.438,14.232 9.415,22.772 9.197,8.32 22.772,8.32 12.699,0 19.049,-5.693 6.568,-5.693 10.072,-13.137 l 18.611,9.634 q -3.066,6.13 -8.977,12.918 -5.693,6.788 -15.108,11.386 -9.415,4.598 -24.085,4.598 z m -31.53,-68.095 h 59.775 q -0.876,-12.261 -8.758,-19.049 -7.883,-7.007 -20.582,-7.007 -12.699,0 -20.801,7.007 -7.882,6.788 -9.634,19.049 z m 97.666,65.029 v -107.944 h 22.114 v 12.699 h 3.504 q 2.627,-6.787 8.32,-9.853 5.912,-3.284 14.451,-3.284 h 12.918 v 20.363 h -13.794 q -10.948,0 -17.954,6.131 -7.007,5.911 -7.007,18.392 v 63.496 z m 135.972,3.066 q -28.027,0 -44.448,-15.765 -16.422,-15.984 -16.422,-45.98 v -35.909 q 0,-29.997 16.422,-45.761 16.421,-15.984 44.448,-15.984 27.588,0 42.477,15.327 15.107,15.327 15.107,41.82 v 1.314 h -23.428 v -1.971 q 0,-15.545 -8.539,-25.398 -8.32,-9.853 -25.617,-9.853 -17.517,0 -27.37,10.728 -9.853,10.51 -9.853,29.34 v 36.785 q 0,18.611 9.853,29.339 9.853,10.729 27.37,10.729 17.297,0 25.617,-9.853 8.539,-10.072 8.539,-25.398 v -3.723 h 23.428 v 3.066 q 0,26.493 -15.107,41.82 -14.889,15.327 -42.477,15.327 z m 126.069,0 q -16.203,0 -28.902,-6.569 -12.481,-6.788 -19.706,-19.268 -7.226,-12.48 -7.226,-29.559 v -3.284 q 0,-17.078 7.226,-29.34 7.225,-12.48 19.706,-19.268 12.699,-6.787 28.902,-6.787 16.202,0 28.901,6.787 12.7,6.788 19.925,19.268 7.226,12.262 7.226,29.34 v 3.284 q 0,17.079 -7.226,29.559 -7.225,12.48 -19.925,19.268 -12.699,6.569 -28.901,6.569 z m 0,-20.144 q 14.888,0 24.084,-9.415 9.415,-9.634 9.415,-26.494 v -1.97 q 0,-16.86 -9.196,-26.275 -9.196,-9.634 -24.303,-9.634 -14.67,0 -24.085,9.634 -9.197,9.415 -9.197,26.275 v 1.97 q 0,16.86 9.197,26.494 9.415,9.415 24.085,9.415 z m 71.913,17.078 v -153.267 h 22.553 v 153.267 z m 42.69,0 v -153.267 h 22.552 v 153.267 z m 92.173,3.066 q -16.421,0 -28.683,-6.788 -12.261,-7.006 -19.268,-19.487 -6.787,-12.699 -6.787,-29.34 v -2.627 q 0,-16.86 6.787,-29.34 6.788,-12.699 18.83,-19.487 12.262,-7.006 28.245,-7.006 15.546,0 27.151,7.006 11.823,6.788 18.392,19.049 6.568,12.262 6.568,28.683 v 8.539 h -82.983 q 0.438,14.232 9.415,22.772 9.196,8.32 22.771,8.32 12.699,0 19.049,-5.693 6.569,-5.693 10.072,-13.137 l 18.611,9.634 q -3.065,6.13 -8.977,12.918 -5.693,6.788 -15.108,11.386 -9.415,4.598 -24.085,4.598 z m -31.529,-68.095 h 59.774 q -0.876,-12.261 -8.758,-19.049 -7.882,-7.007 -20.582,-7.007 -12.699,0 -20.8,7.007 -7.883,6.788 -9.634,19.049 z m 152.748,68.095 q -15.545,0 -28.245,-6.569 -12.48,-6.569 -19.925,-19.049 -7.225,-12.48 -7.225,-29.997 v -2.846 q 0,-17.516 7.225,-29.778 7.445,-12.48 19.925,-19.049 12.7,-6.787 28.245,-6.787 15.546,0 26.494,5.692 10.948,5.693 17.516,15.108 6.788,9.415 8.758,20.801 l -21.895,4.598 q -1.095,-7.226 -4.598,-13.137 -3.503,-5.912 -9.853,-9.415 -6.35,-3.504 -15.984,-3.504 -9.415,0 -17.078,4.379 -7.445,4.161 -11.824,12.262 -4.379,7.882 -4.379,19.268 v 1.97 q 0,11.386 4.379,19.487 4.379,8.102 11.824,12.262 7.663,4.16 17.078,4.16 14.232,0 21.677,-7.226 7.444,-7.444 9.415,-18.83 l 21.895,5.036 q -2.627,11.167 -9.415,20.582 -6.568,9.415 -17.516,15.108 -10.948,5.474 -26.494,5.474 z m 110.401,-3.066 q -9.853,0 -15.764,-5.911 -5.693,-5.912 -5.693,-15.765 v -67.219 h -29.778 v -19.049 h 29.778 v -35.69 h 22.552 v 35.69 h 32.186 v 19.049 h -32.186 v 63.278 q 0,6.568 6.131,6.568 h 22.552 v 19.049 z m 49.329,0 v -107.944 h 22.552 v 107.944 z m 11.386,-122.614 q -6.569,0 -11.167,-4.16 -4.379,-4.379 -4.379,-11.167 0,-6.787 4.379,-10.947 4.598,-4.379 11.167,-4.379 6.787,0 11.166,4.379 4.38,4.16 4.38,10.947 0,6.788 -4.38,11.167 -4.379,4.16 -11.166,4.16 z m 62.789,122.614 -36.346,-107.944 h 23.866 l 28.683,91.304 h 3.503 l 28.683,-91.304 h 23.866 l -36.346,107.944 z m 129.113,3.066 q -16.422,0 -28.683,-6.788 -12.262,-7.006 -19.268,-19.487 -6.788,-12.699 -6.788,-29.34 v -2.627 q 0,-16.86 6.788,-29.34 6.787,-12.699 18.83,-19.487 12.261,-7.006 28.245,-7.006 15.546,0 27.15,7.006 11.824,6.788 18.392,19.049 6.569,12.262 6.569,28.683 v 8.539 h -82.984 q 0.438,14.232 9.415,22.772 9.197,8.32 22.772,8.32 12.699,0 19.049,-5.693 6.568,-5.693 10.072,-13.137 l 18.611,9.634 q -3.066,6.13 -8.977,12.918 -5.693,6.788 -15.108,11.386 -9.415,4.598 -24.085,4.598 z m -31.53,-68.095 h 59.775 q -0.876,-12.261 -8.758,-19.049 -7.883,-7.007 -20.582,-7.007 -12.699,0 -20.801,7.007 -7.882,6.788 -9.634,19.049 z"
         id="text946-0"
         aria-label="ZuperCollective" /><g
         id="g81"><path
           style="fill:url(#linearGradient77);fill-opacity:1;fill-rule:evenodd;stroke:none;stroke-width:5.09283;stroke-linecap:round;stroke-linejoin:round;paint-order:stroke markers fill"
           d="m 14862.458,13832.292 h -6.365 a 19.91255,19.91255 0 0 0 -14.563,6.332 l -61.156,65.577 a 25.349934,25.349934 0 0 0 18.539,42.64 h 63.545 a 20.37127,20.37127 0 0 0 20.371,-20.372 v -73.806 a 20.37127,20.37127 0 0 0 -20.371,-20.371 z"
           id="path940-08" /><path
           style="fill:url(#linearGradient78);fill-opacity:1;fill-rule:evenodd;stroke:none;stroke-width:5.09283;stroke-linecap:round;stroke-linejoin:round;paint-order:stroke markers fill"
           d="m 14826.176,13811.92 v -6.365 a 19.91255,19.91255 0 0 0 -6.331,-14.563 l -65.578,-61.156 a 25.349934,25.349934 0 0 0 -42.639,18.539 v 63.545 a 20.37127,20.37127 0 0 0 20.371,20.371 h 73.806 a 20.37127,20.37127 0 0 0 20.371,-20.371 z"
           id="path946-7" /><path
           style="fill:url(#linearGradient79);fill-opacity:1;fill-rule:evenodd;stroke:none;stroke-width:5.09283;stroke-linecap:round;stroke-linejoin:round;paint-order:stroke markers fill"
           d="m 14882.83,13796.01 v 6.365 a 19.91255,19.91255 0 0 0 6.331,14.563 l 65.578,61.156 a 25.349934,25.349934 0 0 0 42.639,-18.539 v -63.545 a 20.37127,20.37127 0 0 0 -20.371,-20.371 h -73.806 a 20.37127,20.37127 0 0 0 -20.371,20.371 z"
           id="path947-9" /><path
           style="fill:url(#linearGradient80);fill-opacity:1;fill-rule:evenodd;stroke:none;stroke-width:5.09283;stroke-linecap:round;stroke-linejoin:round;paint-order:stroke markers fill"
           d="m 14846.548,13775.639 h 6.365 a 19.91255,19.91255 0 0 0 14.563,-6.332 l 61.156,-65.577 a 25.349934,25.349934 0 0 0 -18.538,-42.639 h -63.546 a 20.37127,20.37127 0 0 0 -20.371,20.371 v 73.806 a 20.37127,20.37127 0 0 0 20.371,20.371 z"
           id="path948-4" /></g></g></g></svg>
