<?xml version="1.0" encoding="UTF-8" standalone="no"?>
<!-- Created with Inkscape (http://www.inkscape.org/) -->

<svg
   width="529.17181mm"
   height="529.16669mm"
   viewBox="0 0 529.17181 529.16669"
   version="1.1"
   id="svg1"
   xml:space="preserve"
   xmlns:xlink="http://www.w3.org/1999/xlink"
   xmlns="http://www.w3.org/2000/svg"
   xmlns:svg="http://www.w3.org/2000/svg"><defs
     id="defs1"><linearGradient
       id="linearGradient2"><stop
         style="stop-color:#92ed00;stop-opacity:1;"
         offset="0"
         id="stop1" /><stop
         style="stop-color:#cfeb00;stop-opacity:1;"
         offset="0.60000002"
         id="stop2" /></linearGradient><linearGradient
       xlink:href="#linearGradient2"
       id="linearGradient1205"
       gradientUnits="userSpaceOnUse"
       gradientTransform="matrix(-2.3577858,0,0,-2.3577858,21051.426,11302.635)"
       x1="1078.4706"
       y1="39.590103"
       x2="1092.5612"
       y2="17.437691" /><linearGradient
       xlink:href="#linearGradient2"
       id="linearGradient1206"
       gradientUnits="userSpaceOnUse"
       gradientTransform="matrix(0,-2.3577858,2.3577858,0,18393.878,13745.662)"
       x1="1078.4706"
       y1="39.590103"
       x2="1092.5612"
       y2="17.437691" /><linearGradient
       xlink:href="#linearGradient2"
       id="linearGradient1207"
       gradientUnits="userSpaceOnUse"
       gradientTransform="matrix(0,2.3577858,-2.3577858,0,18608.399,8645.0847)"
       x1="1078.4706"
       y1="39.590103"
       x2="1092.5612"
       y2="17.437691" /><linearGradient
       xlink:href="#linearGradient2"
       id="linearGradient1208"
       gradientUnits="userSpaceOnUse"
       gradientTransform="matrix(2.3577858,0,0,2.3577858,15950.85,11088.114)"
       x1="1078.4706"
       y1="39.590103"
       x2="1092.5612"
       y2="17.437691" /></defs><g
     id="layer1"
     transform="translate(-17111.184,-11246.208)"><g
       id="g1205"
       transform="matrix(4.0000202,0,0,4.0000202,-56629.16,-33270.933)"><path
         style="fill:url(#linearGradient1205);stroke:none;stroke-width:2.35779;stroke-linecap:round;stroke-linejoin:round;paint-order:stroke markers fill"
         d="m 18504.822,11208.489 h -2.947 a 9.218773,9.218773 0 0 0 -6.742,2.931 l -28.313,30.36 a 11.73608,11.73608 0 0 0 8.582,19.74 h 29.42 a 9.4311434,9.4311434 0 0 0 9.431,-9.431 v -34.169 a 9.4311434,9.4311434 0 0 0 -9.431,-9.431 z"
         id="path1202" /><path
         style="fill:url(#linearGradient1206);stroke:none;stroke-width:2.35779;stroke-linecap:round;stroke-linejoin:round;paint-order:stroke markers fill"
         d="m 18488.024,11199.057 v -2.947 a 9.218773,9.218773 0 0 0 -2.931,-6.742 l -30.36,-28.313 a 11.73608,11.73608 0 0 0 -19.74,8.583 v 29.419 a 9.4311434,9.4311434 0 0 0 9.431,9.431 h 34.169 a 9.4311434,9.4311434 0 0 0 9.431,-9.431 z"
         id="path1203" /><path
         style="fill:url(#linearGradient1207);stroke:none;stroke-width:2.35779;stroke-linecap:round;stroke-linejoin:round;paint-order:stroke markers fill"
         d="m 18514.253,11191.691 v 2.947 a 9.218773,9.218773 0 0 0 2.931,6.743 l 30.36,28.312 a 11.73608,11.73608 0 0 0 19.741,-8.582 v -29.42 a 9.4311434,9.4311434 0 0 0 -9.431,-9.431 h -34.17 a 9.4311434,9.4311434 0 0 0 -9.431,9.431 z"
         id="path1204" /><path
         style="fill:url(#linearGradient1208);stroke:none;stroke-width:2.35779;stroke-linecap:round;stroke-linejoin:round;paint-order:stroke markers fill"
         d="m 18497.456,11182.26 h 2.947 a 9.218773,9.218773 0 0 0 6.742,-2.931 l 28.313,-30.36 a 11.73608,11.73608 0 0 0 -8.583,-19.74 h -29.419 a 9.4311434,9.4311434 0 0 0 -9.431,9.431 v 34.169 a 9.4311434,9.4311434 0 0 0 9.431,9.431 z"
         id="path1205" /></g></g></svg>
