<?xml version="1.0" encoding="UTF-8" standalone="no"?>
<!-- Created with Inkscape (http://www.inkscape.org/) -->

<svg
   width="1343.0591mm"
   height="285.75mm"
   viewBox="0 0 1343.0591 285.75"
   version="1.1"
   id="svg1"
   xml:space="preserve"
   xmlns:xlink="http://www.w3.org/1999/xlink"
   xmlns="http://www.w3.org/2000/svg"
   xmlns:svg="http://www.w3.org/2000/svg"><defs
     id="defs1"><linearGradient
       id="linearGradient2"><stop
         style="stop-color:#92ed00;stop-opacity:1;"
         offset="0"
         id="stop1" /><stop
         style="stop-color:#cfeb00;stop-opacity:1;"
         offset="0.60000002"
         id="stop2" /></linearGradient><linearGradient
       xlink:href="#linearGradient2"
       id="linearGradient1198"
       gradientUnits="userSpaceOnUse"
       gradientTransform="matrix(2.3577858,0,0,2.3577858,15950.85,11088.114)"
       x1="1078.4706"
       y1="39.590103"
       x2="1092.5612"
       y2="17.437691" /><linearGradient
       xlink:href="#linearGradient2"
       id="linearGradient1199"
       gradientUnits="userSpaceOnUse"
       gradientTransform="matrix(0,2.3577858,-2.3577858,0,18608.399,8645.0847)"
       x1="1078.4706"
       y1="39.590103"
       x2="1092.5612"
       y2="17.437691" /><linearGradient
       xlink:href="#linearGradient2"
       id="linearGradient1200"
       gradientUnits="userSpaceOnUse"
       gradientTransform="matrix(0,-2.3577858,2.3577858,0,18393.878,13745.662)"
       x1="1078.4706"
       y1="39.590103"
       x2="1092.5612"
       y2="17.437691" /><linearGradient
       xlink:href="#linearGradient2"
       id="linearGradient1201"
       gradientUnits="userSpaceOnUse"
       gradientTransform="matrix(-2.3577858,0,0,-2.3577858,21051.426,11302.635)"
       x1="1078.4706"
       y1="39.590103"
       x2="1092.5612"
       y2="17.437691" /></defs><g
     id="layer1"
     transform="translate(-17111.184,-12470.358)"><g
       id="g1209"
       transform="matrix(2.1600109,0,0,2.1600109,-23183.435,-15033.254)"><path
         style="font-weight:500;font-size:101.367px;line-height:1.3;font-family:'Space Grotesk';-inkscape-font-specification:'Space Grotesk Medium';text-align:center;letter-spacing:-1.85451px;text-anchor:middle;stroke-width:1.30018;stroke-linecap:round;stroke-linejoin:round;paint-order:stroke markers fill"
         d="m 18807.388,12836.707 v -14.192 l 37.303,-45.513 v -1.42 h -36.188 v -9.832 h 47.44 v 14.191 l -37.304,45.514 v 1.419 h 37.709 v 9.833 z m 76.269,0.912 q -5.677,0 -10.137,-2.534 -4.46,-2.534 -6.994,-7.197 -2.534,-4.663 -2.534,-11.151 v -30.004 h 10.44 v 29.295 q 0,6.487 3.244,9.63 3.244,3.041 9.022,3.041 6.386,0 10.238,-4.258 3.953,-4.359 3.953,-12.468 v -25.24 h 10.441 v 49.974 h -10.238 v -7.501 h -1.622 q -1.419,3.041 -5.068,5.777 -3.65,2.636 -10.745,2.636 z m 36.988,19.361 v -70.247 h 10.238 v 7.197 h 1.622 q 1.926,-3.345 5.777,-5.981 3.954,-2.635 11.252,-2.635 6.285,0 11.455,3.041 5.271,3.041 8.413,8.819 3.244,5.676 3.244,13.785 v 1.521 q 0,8.109 -3.142,13.887 -3.143,5.677 -8.414,8.718 -5.271,3.041 -11.556,3.041 -4.865,0 -8.211,-1.217 -3.345,-1.216 -5.372,-3.041 -2.027,-1.926 -3.244,-3.953 h -1.622 v 27.065 z m 25.848,-27.977 q 6.893,0 11.252,-4.359 4.359,-4.359 4.359,-12.468 v -0.912 q 0,-8.008 -4.46,-12.367 -4.359,-4.359 -11.151,-4.359 -6.69,0 -11.15,4.359 -4.359,4.359 -4.359,12.367 v 0.912 q 0,8.109 4.359,12.468 4.46,4.359 11.15,4.359 z m 57.023,9.123 q -7.602,0 -13.279,-3.143 -5.676,-3.243 -8.92,-9.021 -3.142,-5.88 -3.142,-13.583 v -1.217 q 0,-7.805 3.142,-13.583 3.142,-5.879 8.718,-9.022 5.676,-3.243 13.076,-3.243 7.197,0 12.569,3.243 5.474,3.143 8.515,8.819 3.041,5.677 3.041,13.279 v 3.954 h -38.418 q 0.203,6.589 4.359,10.542 4.257,3.852 10.542,3.852 5.879,0 8.819,-2.636 3.041,-2.635 4.663,-6.082 l 8.616,4.46 q -1.419,2.839 -4.156,5.981 -2.636,3.142 -6.994,5.271 -4.359,2.129 -11.151,2.129 z m -14.597,-31.525 h 27.674 q -0.406,-5.677 -4.055,-8.819 -3.649,-3.244 -9.529,-3.244 -5.879,0 -9.629,3.244 -3.65,3.142 -4.461,8.819 z m 45.216,30.106 v -49.974 h 10.238 v 5.879 h 1.622 q 1.216,-3.142 3.852,-4.561 2.737,-1.521 6.69,-1.521 h 5.98 v 9.427 h -6.386 q -5.068,0 -8.312,2.838 -3.243,2.737 -3.243,8.515 v 29.397 z m 37.07,0 v -70.957 h 10.948 v 30.41 h 29.802 v -30.41 h 10.947 v 70.957 h -10.947 v -30.613 h -29.802 v 30.613 z m 78.498,0.912 q -5.677,0 -10.137,-2.534 -4.46,-2.534 -6.994,-7.197 -2.534,-4.663 -2.534,-11.151 v -30.004 h 10.441 v 29.295 q 0,6.487 3.243,9.63 3.244,3.041 9.022,3.041 6.386,0 10.238,-4.258 3.953,-4.359 3.953,-12.468 v -25.24 h 10.441 v 49.974 h -10.238 v -7.501 h -1.622 q -1.419,3.041 -5.068,5.777 -3.649,2.636 -10.745,2.636 z m 36.741,-0.912 v -49.974 h 10.238 v 7.501 h 1.622 q 1.419,-3.041 5.068,-5.677 3.65,-2.635 10.847,-2.635 5.676,0 10.035,2.534 4.46,2.534 6.994,7.197 2.535,4.562 2.535,11.049 v 30.005 h -10.441 v -29.194 q 0,-6.488 -3.244,-9.529 -3.244,-3.142 -8.92,-3.142 -6.488,0 -10.441,4.258 -3.852,4.257 -3.852,12.366 v 25.241 z m 74.754,0 q -4.562,0 -7.299,-2.737 -2.635,-2.737 -2.635,-7.299 v -31.119 h -13.786 v -8.819 h 13.786 v -16.523 h 10.441 v 16.523 h 14.901 v 8.819 h -14.901 v 29.295 q 0,3.041 2.838,3.041 h 10.441 v 8.819 z"
         id="text1116"
         aria-label="ZuperHunt" /><g
         id="g1202"
         transform="translate(219.82919,1603.8602)"><path
           style="fill:url(#linearGradient1201);stroke:none;stroke-width:2.35779;stroke-linecap:round;stroke-linejoin:round;paint-order:stroke markers fill"
           d="m 18504.822,11208.489 h -2.947 a 9.218773,9.218773 0 0 0 -6.742,2.931 l -28.313,30.36 a 11.73608,11.73608 0 0 0 8.582,19.74 h 29.42 a 9.4311434,9.4311434 0 0 0 9.431,-9.431 v -34.169 a 9.4311434,9.4311434 0 0 0 -9.431,-9.431 z"
           id="path1075" /><path
           style="fill:url(#linearGradient1200);stroke:none;stroke-width:2.35779;stroke-linecap:round;stroke-linejoin:round;paint-order:stroke markers fill"
           d="m 18488.024,11199.057 v -2.947 a 9.218773,9.218773 0 0 0 -2.931,-6.742 l -30.36,-28.313 a 11.73608,11.73608 0 0 0 -19.74,8.583 v 29.419 a 9.4311434,9.4311434 0 0 0 9.431,9.431 h 34.169 a 9.4311434,9.4311434 0 0 0 9.431,-9.431 z"
           id="path1116" /><path
           style="fill:url(#linearGradient1199);stroke:none;stroke-width:2.35779;stroke-linecap:round;stroke-linejoin:round;paint-order:stroke markers fill"
           d="m 18514.253,11191.691 v 2.947 a 9.218773,9.218773 0 0 0 2.931,6.743 l 30.36,28.312 a 11.73608,11.73608 0 0 0 19.741,-8.582 v -29.42 a 9.4311434,9.4311434 0 0 0 -9.431,-9.431 h -34.17 a 9.4311434,9.4311434 0 0 0 -9.431,9.431 z"
           id="path1125" /><path
           style="fill:url(#linearGradient1198);stroke:none;stroke-width:2.35779;stroke-linecap:round;stroke-linejoin:round;paint-order:stroke markers fill"
           d="m 18497.456,11182.26 h 2.947 a 9.218773,9.218773 0 0 0 6.742,-2.931 l 28.313,-30.36 a 11.73608,11.73608 0 0 0 -8.583,-19.74 h -29.419 a 9.4311434,9.4311434 0 0 0 -9.431,9.431 v 34.169 a 9.4311434,9.4311434 0 0 0 9.431,9.431 z"
           id="path1126" /></g></g></g></svg>
